<svg width="594" height="634" viewBox="0 0 594 634" fill="none" xmlns="http://www.w3.org/2000/svg">
<rect x="2" y="2" width="590" height="630" rx="12" stroke="white" stroke-width="4" stroke-linecap="round" stroke-dasharray="12 12"/>
<path d="M200.568 305L191.023 270.091H195.318L202.614 298.523H202.955L210.386 270.091H215.159L222.591 298.523H222.932L230.227 270.091H234.523L224.977 305H220.614L212.909 277.182H212.636L204.932 305H200.568ZM239.739 300.534C238.898 300.534 238.176 300.233 237.574 299.631C236.972 299.028 236.67 298.307 236.67 297.466C236.67 296.625 236.972 295.903 237.574 295.301C238.176 294.699 238.898 294.398 239.739 294.398C240.58 294.398 241.301 294.699 241.903 295.301C242.506 295.903 242.807 296.625 242.807 297.466C242.807 298.023 242.665 298.534 242.381 299C242.108 299.466 241.739 299.841 241.273 300.125C240.818 300.398 240.307 300.534 239.739 300.534ZM239.739 282.875C238.898 282.875 238.176 282.574 237.574 281.972C236.972 281.369 236.67 280.648 236.67 279.807C236.67 278.966 236.972 278.244 237.574 277.642C238.176 277.04 238.898 276.739 239.739 276.739C240.58 276.739 241.301 277.04 241.903 277.642C242.506 278.244 242.807 278.966 242.807 279.807C242.807 280.364 242.665 280.875 242.381 281.341C242.108 281.807 241.739 282.182 241.273 282.466C240.818 282.739 240.307 282.875 239.739 282.875ZM274.366 305.477C272.366 305.477 270.565 305.08 268.963 304.284C267.361 303.489 266.077 302.398 265.111 301.011C264.145 299.625 263.616 298.045 263.526 296.273H267.616C267.776 297.852 268.491 299.159 269.764 300.193C271.048 301.216 272.582 301.727 274.366 301.727C275.798 301.727 277.071 301.392 278.185 300.722C279.31 300.051 280.19 299.131 280.827 297.96C281.474 296.778 281.798 295.443 281.798 293.955C281.798 292.432 281.463 291.074 280.793 289.881C280.134 288.676 279.224 287.727 278.065 287.034C276.906 286.341 275.582 285.989 274.094 285.977C273.026 285.966 271.929 286.131 270.804 286.472C269.679 286.801 268.753 287.227 268.026 287.75L264.071 287.273L266.185 270.091H284.321V273.841H269.73L268.503 284.136H268.707C269.423 283.568 270.321 283.097 271.401 282.722C272.48 282.347 273.605 282.159 274.776 282.159C276.912 282.159 278.815 282.67 280.486 283.693C282.168 284.705 283.486 286.091 284.44 287.852C285.406 289.614 285.889 291.625 285.889 293.886C285.889 296.114 285.389 298.102 284.389 299.852C283.401 301.591 282.037 302.966 280.298 303.977C278.56 304.977 276.582 305.477 274.366 305.477ZM303.774 269.614C305.206 269.625 306.638 269.898 308.07 270.432C309.501 270.966 310.808 271.852 311.99 273.091C313.172 274.318 314.121 275.994 314.837 278.119C315.553 280.244 315.911 282.909 315.911 286.114C315.911 289.216 315.615 291.972 315.024 294.381C314.445 296.778 313.604 298.801 312.501 300.449C311.411 302.097 310.081 303.347 308.513 304.199C306.956 305.051 305.195 305.477 303.229 305.477C301.274 305.477 299.53 305.091 297.996 304.318C296.473 303.534 295.223 302.449 294.246 301.062C293.28 299.665 292.661 298.045 292.388 296.205H296.547C296.922 297.807 297.666 299.131 298.78 300.176C299.905 301.21 301.388 301.727 303.229 301.727C305.922 301.727 308.047 300.551 309.604 298.199C311.172 295.847 311.956 292.523 311.956 288.227H311.683C311.047 289.182 310.291 290.006 309.416 290.699C308.541 291.392 307.57 291.926 306.501 292.301C305.433 292.676 304.297 292.864 303.092 292.864C301.092 292.864 299.257 292.369 297.587 291.381C295.928 290.381 294.598 289.011 293.598 287.273C292.609 285.523 292.115 283.523 292.115 281.273C292.115 279.136 292.592 277.182 293.547 275.409C294.513 273.625 295.865 272.205 297.604 271.148C299.354 270.091 301.411 269.58 303.774 269.614ZM303.774 273.364C302.342 273.364 301.053 273.722 299.905 274.438C298.768 275.142 297.865 276.097 297.195 277.301C296.536 278.494 296.206 279.818 296.206 281.273C296.206 282.727 296.524 284.051 297.161 285.244C297.808 286.426 298.689 287.369 299.803 288.074C300.928 288.767 302.206 289.114 303.638 289.114C304.717 289.114 305.723 288.903 306.655 288.483C307.587 288.051 308.399 287.466 309.092 286.727C309.797 285.977 310.348 285.131 310.746 284.188C311.143 283.233 311.342 282.239 311.342 281.205C311.342 279.841 311.013 278.562 310.354 277.369C309.706 276.176 308.808 275.21 307.661 274.472C306.524 273.733 305.229 273.364 303.774 273.364ZM334 305.477C331.432 305.477 329.244 304.778 327.438 303.381C325.631 301.972 324.25 299.932 323.295 297.261C322.341 294.58 321.864 291.341 321.864 287.545C321.864 283.773 322.341 280.551 323.295 277.881C324.261 275.199 325.648 273.153 327.455 271.744C329.273 270.324 331.455 269.614 334 269.614C336.545 269.614 338.722 270.324 340.528 271.744C342.347 273.153 343.733 275.199 344.688 277.881C345.653 280.551 346.136 283.773 346.136 287.545C346.136 291.341 345.659 294.58 344.705 297.261C343.75 299.932 342.369 301.972 340.562 303.381C338.756 304.778 336.568 305.477 334 305.477ZM334 301.727C336.545 301.727 338.523 300.5 339.932 298.045C341.341 295.591 342.045 292.091 342.045 287.545C342.045 284.523 341.722 281.949 341.074 279.824C340.438 277.699 339.517 276.08 338.312 274.966C337.119 273.852 335.682 273.295 334 273.295C331.477 273.295 329.506 274.54 328.085 277.028C326.665 279.506 325.955 283.011 325.955 287.545C325.955 290.568 326.273 293.136 326.909 295.25C327.545 297.364 328.46 298.972 329.653 300.074C330.858 301.176 332.307 301.727 334 301.727ZM352.682 314.818V278.818H356.568V282.977H357.045C357.341 282.523 357.75 281.943 358.273 281.239C358.807 280.523 359.568 279.886 360.557 279.33C361.557 278.761 362.909 278.477 364.614 278.477C366.818 278.477 368.761 279.028 370.443 280.131C372.125 281.233 373.438 282.795 374.381 284.818C375.324 286.841 375.795 289.227 375.795 291.977C375.795 294.75 375.324 297.153 374.381 299.188C373.438 301.21 372.131 302.778 370.46 303.892C368.79 304.994 366.864 305.545 364.682 305.545C363 305.545 361.653 305.267 360.642 304.71C359.631 304.142 358.852 303.5 358.307 302.784C357.761 302.057 357.341 301.455 357.045 300.977H356.705V314.818H352.682ZM356.636 291.909C356.636 293.886 356.926 295.631 357.506 297.142C358.085 298.642 358.932 299.818 360.045 300.67C361.159 301.511 362.523 301.932 364.136 301.932C365.818 301.932 367.222 301.489 368.347 300.602C369.483 299.705 370.335 298.5 370.903 296.989C371.483 295.466 371.773 293.773 371.773 291.909C371.773 290.068 371.489 288.409 370.92 286.932C370.364 285.443 369.517 284.267 368.381 283.403C367.256 282.528 365.841 282.091 364.136 282.091C362.5 282.091 361.125 282.506 360.011 283.335C358.898 284.153 358.057 285.301 357.489 286.778C356.92 288.244 356.636 289.955 356.636 291.909ZM383.854 278.818L390.126 289.523L396.399 278.818H401.036L392.581 291.909L401.036 305H396.399L390.126 294.841L383.854 305H379.217L387.536 291.909L379.217 278.818H383.854ZM194.227 363V328.091H198.455V343.636H217.068V328.091H221.295V363H217.068V347.386H198.455V363H194.227ZM232.145 358.534C231.304 358.534 230.582 358.233 229.98 357.631C229.378 357.028 229.077 356.307 229.077 355.466C229.077 354.625 229.378 353.903 229.98 353.301C230.582 352.699 231.304 352.398 232.145 352.398C232.986 352.398 233.707 352.699 234.31 353.301C234.912 353.903 235.213 354.625 235.213 355.466C235.213 356.023 235.071 356.534 234.787 357C234.514 357.466 234.145 357.841 233.679 358.125C233.224 358.398 232.713 358.534 232.145 358.534ZM232.145 340.875C231.304 340.875 230.582 340.574 229.98 339.972C229.378 339.369 229.077 338.648 229.077 337.807C229.077 336.966 229.378 336.244 229.98 335.642C230.582 335.04 231.304 334.739 232.145 334.739C232.986 334.739 233.707 335.04 234.31 335.642C234.912 336.244 235.213 336.966 235.213 337.807C235.213 338.364 235.071 338.875 234.787 339.341C234.514 339.807 234.145 340.182 233.679 340.466C233.224 340.739 232.713 340.875 232.145 340.875ZM267.455 363.477C266.023 363.455 264.591 363.182 263.159 362.659C261.727 362.136 260.42 361.256 259.239 360.017C258.057 358.767 257.108 357.08 256.392 354.955C255.676 352.818 255.318 350.136 255.318 346.909C255.318 343.818 255.608 341.08 256.188 338.693C256.767 336.295 257.608 334.278 258.71 332.642C259.813 330.994 261.142 329.744 262.699 328.892C264.267 328.04 266.034 327.614 268 327.614C269.955 327.614 271.693 328.006 273.216 328.79C274.75 329.562 276 330.642 276.966 332.028C277.932 333.415 278.557 335.011 278.841 336.818H274.682C274.295 335.25 273.545 333.949 272.432 332.915C271.318 331.881 269.841 331.364 268 331.364C265.295 331.364 263.165 332.54 261.608 334.892C260.063 337.244 259.284 340.545 259.273 344.795H259.545C260.182 343.83 260.938 343.006 261.812 342.324C262.699 341.631 263.676 341.097 264.744 340.722C265.813 340.347 266.943 340.159 268.136 340.159C270.136 340.159 271.966 340.659 273.625 341.659C275.284 342.648 276.614 344.017 277.614 345.767C278.614 347.506 279.114 349.5 279.114 351.75C279.114 353.909 278.631 355.886 277.665 357.682C276.699 359.466 275.341 360.886 273.591 361.943C271.852 362.989 269.807 363.5 267.455 363.477ZM267.455 359.727C268.886 359.727 270.17 359.369 271.307 358.653C272.455 357.937 273.358 356.977 274.017 355.773C274.688 354.568 275.023 353.227 275.023 351.75C275.023 350.307 274.699 348.994 274.051 347.812C273.415 346.619 272.534 345.67 271.409 344.966C270.295 344.261 269.023 343.909 267.591 343.909C266.511 343.909 265.506 344.125 264.574 344.557C263.642 344.977 262.824 345.557 262.119 346.295C261.426 347.034 260.881 347.881 260.483 348.835C260.085 349.778 259.886 350.773 259.886 351.818C259.886 353.205 260.21 354.5 260.858 355.705C261.517 356.909 262.415 357.881 263.551 358.619C264.699 359.358 266 359.727 267.455 359.727ZM297.612 363.477C295.362 363.477 293.357 363.091 291.595 362.318C289.845 361.545 288.453 360.472 287.419 359.097C286.396 357.71 285.839 356.102 285.749 354.273H290.044C290.135 355.398 290.521 356.369 291.203 357.188C291.885 357.994 292.777 358.619 293.879 359.062C294.982 359.506 296.203 359.727 297.544 359.727C299.044 359.727 300.374 359.466 301.533 358.943C302.692 358.42 303.601 357.693 304.26 356.761C304.919 355.83 305.249 354.75 305.249 353.523C305.249 352.239 304.93 351.108 304.294 350.131C303.658 349.142 302.726 348.369 301.499 347.812C300.271 347.256 298.771 346.977 296.999 346.977H294.203V343.227H296.999C298.385 343.227 299.601 342.977 300.646 342.477C301.703 341.977 302.527 341.273 303.118 340.364C303.72 339.455 304.021 338.386 304.021 337.159C304.021 335.977 303.76 334.949 303.237 334.074C302.714 333.199 301.976 332.517 301.021 332.028C300.078 331.54 298.964 331.295 297.68 331.295C296.476 331.295 295.339 331.517 294.271 331.96C293.214 332.392 292.351 333.023 291.68 333.852C291.01 334.67 290.646 335.659 290.589 336.818H286.499C286.567 334.989 287.118 333.386 288.152 332.011C289.186 330.625 290.538 329.545 292.209 328.773C293.891 328 295.737 327.614 297.749 327.614C299.908 327.614 301.76 328.051 303.305 328.926C304.851 329.79 306.038 330.932 306.868 332.352C307.697 333.773 308.112 335.307 308.112 336.955C308.112 338.92 307.595 340.597 306.561 341.983C305.538 343.369 304.146 344.33 302.385 344.864V345.136C304.589 345.5 306.311 346.437 307.55 347.949C308.788 349.449 309.408 351.307 309.408 353.523C309.408 355.42 308.891 357.125 307.857 358.636C306.834 360.136 305.436 361.318 303.663 362.182C301.891 363.045 299.874 363.477 297.612 363.477ZM327.766 363.477C325.197 363.477 323.01 362.778 321.203 361.381C319.396 359.972 318.016 357.932 317.061 355.261C316.107 352.58 315.629 349.341 315.629 345.545C315.629 341.773 316.107 338.551 317.061 335.881C318.027 333.199 319.413 331.153 321.22 329.744C323.038 328.324 325.22 327.614 327.766 327.614C330.311 327.614 332.487 328.324 334.294 329.744C336.112 331.153 337.499 333.199 338.453 335.881C339.419 338.551 339.902 341.773 339.902 345.545C339.902 349.341 339.425 352.58 338.47 355.261C337.516 357.932 336.135 359.972 334.328 361.381C332.521 362.778 330.334 363.477 327.766 363.477ZM327.766 359.727C330.311 359.727 332.288 358.5 333.697 356.045C335.107 353.591 335.811 350.091 335.811 345.545C335.811 342.523 335.487 339.949 334.839 337.824C334.203 335.699 333.283 334.08 332.078 332.966C330.885 331.852 329.447 331.295 327.766 331.295C325.243 331.295 323.271 332.54 321.851 335.028C320.43 337.506 319.72 341.011 319.72 345.545C319.72 348.568 320.038 351.136 320.675 353.25C321.311 355.364 322.226 356.972 323.419 358.074C324.624 359.176 326.072 359.727 327.766 359.727ZM346.447 372.818V336.818H350.334V340.977H350.811C351.107 340.523 351.516 339.943 352.038 339.239C352.572 338.523 353.334 337.886 354.322 337.33C355.322 336.761 356.675 336.477 358.379 336.477C360.584 336.477 362.527 337.028 364.209 338.131C365.891 339.233 367.203 340.795 368.146 342.818C369.089 344.841 369.561 347.227 369.561 349.977C369.561 352.75 369.089 355.153 368.146 357.188C367.203 359.21 365.896 360.778 364.226 361.892C362.555 362.994 360.629 363.545 358.447 363.545C356.766 363.545 355.419 363.267 354.408 362.71C353.396 362.142 352.618 361.5 352.072 360.784C351.527 360.057 351.107 359.455 350.811 358.977H350.47V372.818H346.447ZM350.402 349.909C350.402 351.886 350.692 353.631 351.271 355.142C351.851 356.642 352.697 357.818 353.811 358.67C354.925 359.511 356.288 359.932 357.902 359.932C359.584 359.932 360.987 359.489 362.112 358.602C363.249 357.705 364.101 356.5 364.669 354.989C365.249 353.466 365.538 351.773 365.538 349.909C365.538 348.068 365.254 346.409 364.686 344.932C364.129 343.443 363.283 342.267 362.146 341.403C361.021 340.528 359.607 340.091 357.902 340.091C356.266 340.091 354.891 340.506 353.777 341.335C352.663 342.153 351.822 343.301 351.254 344.778C350.686 346.244 350.402 347.955 350.402 349.909ZM377.619 336.818L383.892 347.523L390.165 336.818H394.801L386.347 349.909L394.801 363H390.165L383.892 352.841L377.619 363H372.983L381.301 349.909L372.983 336.818H377.619Z" fill="white"/>
</svg>
