<svg width="804" height="454" viewBox="0 0 804 454" fill="none" xmlns="http://www.w3.org/2000/svg">
<rect x="2" y="2" width="800" height="450" rx="12" stroke="white" stroke-width="4" stroke-linecap="round" stroke-dasharray="12 12"/>
<path d="M305.568 215L296.023 180.091H300.318L307.614 208.523H307.955L315.386 180.091H320.159L327.591 208.523H327.932L335.227 180.091H339.523L329.977 215H325.614L317.909 187.182H317.636L309.932 215H305.568ZM344.739 210.534C343.898 210.534 343.176 210.233 342.574 209.631C341.972 209.028 341.67 208.307 341.67 207.466C341.67 206.625 341.972 205.903 342.574 205.301C343.176 204.699 343.898 204.398 344.739 204.398C345.58 204.398 346.301 204.699 346.903 205.301C347.506 205.903 347.807 206.625 347.807 207.466C347.807 208.023 347.665 208.534 347.381 209C347.108 209.466 346.739 209.841 346.273 210.125C345.818 210.398 345.307 210.534 344.739 210.534ZM344.739 192.875C343.898 192.875 343.176 192.574 342.574 191.972C341.972 191.369 341.67 190.648 341.67 189.807C341.67 188.966 341.972 188.244 342.574 187.642C343.176 187.04 343.898 186.739 344.739 186.739C345.58 186.739 346.301 187.04 346.903 187.642C347.506 188.244 347.807 188.966 347.807 189.807C347.807 190.364 347.665 190.875 347.381 191.341C347.108 191.807 346.739 192.182 346.273 192.466C345.818 192.739 345.307 192.875 344.739 192.875ZM379.639 215.477C377.298 215.477 375.23 215.062 373.435 214.233C371.651 213.392 370.259 212.239 369.259 210.773C368.259 209.295 367.764 207.614 367.776 205.727C367.764 204.25 368.054 202.886 368.645 201.636C369.236 200.375 370.043 199.324 371.065 198.483C372.099 197.631 373.253 197.091 374.526 196.864V196.659C372.855 196.227 371.526 195.29 370.537 193.847C369.548 192.392 369.06 190.739 369.071 188.886C369.06 187.114 369.509 185.528 370.418 184.131C371.327 182.733 372.577 181.631 374.168 180.824C375.77 180.017 377.594 179.614 379.639 179.614C381.662 179.614 383.469 180.017 385.06 180.824C386.651 181.631 387.901 182.733 388.81 184.131C389.73 185.528 390.196 187.114 390.207 188.886C390.196 190.739 389.69 192.392 388.69 193.847C387.702 195.29 386.389 196.227 384.753 196.659V196.864C386.014 197.091 387.151 197.631 388.162 198.483C389.173 199.324 389.98 200.375 390.582 201.636C391.185 202.886 391.491 204.25 391.503 205.727C391.491 207.614 390.98 209.295 389.969 210.773C388.969 212.239 387.577 213.392 385.793 214.233C384.02 215.062 381.969 215.477 379.639 215.477ZM379.639 211.727C381.219 211.727 382.582 211.472 383.73 210.96C384.878 210.449 385.764 209.727 386.389 208.795C387.014 207.864 387.332 206.773 387.344 205.523C387.332 204.205 386.991 203.04 386.321 202.028C385.651 201.017 384.736 200.222 383.577 199.642C382.429 199.062 381.116 198.773 379.639 198.773C378.151 198.773 376.821 199.062 375.651 199.642C374.491 200.222 373.577 201.017 372.906 202.028C372.247 203.04 371.923 204.205 371.935 205.523C371.923 206.773 372.224 207.864 372.838 208.795C373.463 209.727 374.355 210.449 375.514 210.96C376.673 211.472 378.048 211.727 379.639 211.727ZM379.639 195.159C380.889 195.159 381.997 194.909 382.963 194.409C383.94 193.909 384.707 193.21 385.264 192.312C385.821 191.415 386.105 190.364 386.116 189.159C386.105 187.977 385.827 186.949 385.281 186.074C384.736 185.187 383.98 184.506 383.014 184.028C382.048 183.54 380.923 183.295 379.639 183.295C378.332 183.295 377.19 183.54 376.213 184.028C375.236 184.506 374.48 185.187 373.946 186.074C373.412 186.949 373.151 187.977 373.162 189.159C373.151 190.364 373.418 191.415 373.963 192.312C374.52 193.21 375.287 193.909 376.264 194.409C377.241 194.909 378.366 195.159 379.639 195.159ZM409.422 215.477C406.854 215.477 404.666 214.778 402.859 213.381C401.053 211.972 399.672 209.932 398.717 207.261C397.763 204.58 397.286 201.341 397.286 197.545C397.286 193.773 397.763 190.551 398.717 187.881C399.683 185.199 401.07 183.153 402.876 181.744C404.695 180.324 406.876 179.614 409.422 179.614C411.967 179.614 414.143 180.324 415.95 181.744C417.768 183.153 419.155 185.199 420.109 187.881C421.075 190.551 421.558 193.773 421.558 197.545C421.558 201.341 421.081 204.58 420.126 207.261C419.172 209.932 417.791 211.972 415.984 213.381C414.178 214.778 411.99 215.477 409.422 215.477ZM409.422 211.727C411.967 211.727 413.945 210.5 415.354 208.045C416.763 205.591 417.467 202.091 417.467 197.545C417.467 194.523 417.143 191.949 416.496 189.824C415.859 187.699 414.939 186.08 413.734 184.966C412.541 183.852 411.104 183.295 409.422 183.295C406.899 183.295 404.928 184.54 403.507 187.028C402.087 189.506 401.376 193.011 401.376 197.545C401.376 200.568 401.695 203.136 402.331 205.25C402.967 207.364 403.882 208.972 405.075 210.074C406.28 211.176 407.729 211.727 409.422 211.727ZM439.422 215.477C436.854 215.477 434.666 214.778 432.859 213.381C431.053 211.972 429.672 209.932 428.717 207.261C427.763 204.58 427.286 201.341 427.286 197.545C427.286 193.773 427.763 190.551 428.717 187.881C429.683 185.199 431.07 183.153 432.876 181.744C434.695 180.324 436.876 179.614 439.422 179.614C441.967 179.614 444.143 180.324 445.95 181.744C447.768 183.153 449.155 185.199 450.109 187.881C451.075 190.551 451.558 193.773 451.558 197.545C451.558 201.341 451.081 204.58 450.126 207.261C449.172 209.932 447.791 211.972 445.984 213.381C444.178 214.778 441.99 215.477 439.422 215.477ZM439.422 211.727C441.967 211.727 443.945 210.5 445.354 208.045C446.763 205.591 447.467 202.091 447.467 197.545C447.467 194.523 447.143 191.949 446.496 189.824C445.859 187.699 444.939 186.08 443.734 184.966C442.541 183.852 441.104 183.295 439.422 183.295C436.899 183.295 434.928 184.54 433.507 187.028C432.087 189.506 431.376 193.011 431.376 197.545C431.376 200.568 431.695 203.136 432.331 205.25C432.967 207.364 433.882 208.972 435.075 210.074C436.28 211.176 437.729 211.727 439.422 211.727ZM458.104 224.818V188.818H461.99V192.977H462.467C462.763 192.523 463.172 191.943 463.695 191.239C464.229 190.523 464.99 189.886 465.979 189.33C466.979 188.761 468.331 188.477 470.036 188.477C472.24 188.477 474.183 189.028 475.865 190.131C477.547 191.233 478.859 192.795 479.803 194.818C480.746 196.841 481.217 199.227 481.217 201.977C481.217 204.75 480.746 207.153 479.803 209.188C478.859 211.21 477.553 212.778 475.882 213.892C474.212 214.994 472.286 215.545 470.104 215.545C468.422 215.545 467.075 215.267 466.064 214.71C465.053 214.142 464.274 213.5 463.729 212.784C463.183 212.057 462.763 211.455 462.467 210.977H462.126V224.818H458.104ZM462.058 201.909C462.058 203.886 462.348 205.631 462.928 207.142C463.507 208.642 464.354 209.818 465.467 210.67C466.581 211.511 467.945 211.932 469.558 211.932C471.24 211.932 472.643 211.489 473.768 210.602C474.905 209.705 475.757 208.5 476.325 206.989C476.905 205.466 477.195 203.773 477.195 201.909C477.195 200.068 476.911 198.409 476.342 196.932C475.786 195.443 474.939 194.267 473.803 193.403C472.678 192.528 471.263 192.091 469.558 192.091C467.922 192.091 466.547 192.506 465.433 193.335C464.32 194.153 463.479 195.301 462.911 196.778C462.342 198.244 462.058 199.955 462.058 201.909ZM489.276 188.818L495.548 199.523L501.821 188.818H506.457L498.003 201.909L506.457 215H501.821L495.548 204.841L489.276 215H484.639L492.957 201.909L484.639 188.818H489.276ZM299.227 273V238.091H303.455V253.636H322.068V238.091H326.295V273H322.068V257.386H303.455V273H299.227ZM337.145 268.534C336.304 268.534 335.582 268.233 334.98 267.631C334.378 267.028 334.077 266.307 334.077 265.466C334.077 264.625 334.378 263.903 334.98 263.301C335.582 262.699 336.304 262.398 337.145 262.398C337.986 262.398 338.707 262.699 339.31 263.301C339.912 263.903 340.213 264.625 340.213 265.466C340.213 266.023 340.071 266.534 339.787 267C339.514 267.466 339.145 267.841 338.679 268.125C338.224 268.398 337.713 268.534 337.145 268.534ZM337.145 250.875C336.304 250.875 335.582 250.574 334.98 249.972C334.378 249.369 334.077 248.648 334.077 247.807C334.077 246.966 334.378 246.244 334.98 245.642C335.582 245.04 336.304 244.739 337.145 244.739C337.986 244.739 338.707 245.04 339.31 245.642C339.912 246.244 340.213 246.966 340.213 247.807C340.213 248.364 340.071 248.875 339.787 249.341C339.514 249.807 339.145 250.182 338.679 250.466C338.224 250.739 337.713 250.875 337.145 250.875ZM360.045 265.841V262.364L375.386 238.091H377.909V243.477H376.205L364.614 261.818V262.091H385.273V265.841H360.045ZM376.477 273V264.784V263.165V238.091H380.5V273H376.477ZM402.57 273.477C400.57 273.477 398.768 273.08 397.166 272.284C395.564 271.489 394.28 270.398 393.314 269.011C392.348 267.625 391.82 266.045 391.729 264.273H395.82C395.979 265.852 396.695 267.159 397.967 268.193C399.251 269.216 400.786 269.727 402.57 269.727C404.001 269.727 405.274 269.392 406.388 268.722C407.513 268.051 408.393 267.131 409.03 265.96C409.678 264.778 410.001 263.443 410.001 261.955C410.001 260.432 409.666 259.074 408.996 257.881C408.337 256.676 407.428 255.727 406.268 255.034C405.109 254.341 403.786 253.989 402.297 253.977C401.229 253.966 400.132 254.131 399.007 254.472C397.882 254.801 396.956 255.227 396.229 255.75L392.274 255.273L394.388 238.091H412.524V241.841H397.933L396.706 252.136H396.911C397.626 251.568 398.524 251.097 399.604 250.722C400.683 250.347 401.808 250.159 402.979 250.159C405.115 250.159 407.018 250.67 408.689 251.693C410.371 252.705 411.689 254.091 412.643 255.852C413.609 257.614 414.092 259.625 414.092 261.886C414.092 264.114 413.592 266.102 412.592 267.852C411.604 269.591 410.24 270.966 408.501 271.977C406.763 272.977 404.786 273.477 402.57 273.477ZM432.25 273.477C429.682 273.477 427.494 272.778 425.688 271.381C423.881 269.972 422.5 267.932 421.545 265.261C420.591 262.58 420.114 259.341 420.114 255.545C420.114 251.773 420.591 248.551 421.545 245.881C422.511 243.199 423.898 241.153 425.705 239.744C427.523 238.324 429.705 237.614 432.25 237.614C434.795 237.614 436.972 238.324 438.778 239.744C440.597 241.153 441.983 243.199 442.938 245.881C443.903 248.551 444.386 251.773 444.386 255.545C444.386 259.341 443.909 262.58 442.955 265.261C442 267.932 440.619 269.972 438.812 271.381C437.006 272.778 434.818 273.477 432.25 273.477ZM432.25 269.727C434.795 269.727 436.773 268.5 438.182 266.045C439.591 263.591 440.295 260.091 440.295 255.545C440.295 252.523 439.972 249.949 439.324 247.824C438.688 245.699 437.767 244.08 436.562 242.966C435.369 241.852 433.932 241.295 432.25 241.295C429.727 241.295 427.756 242.54 426.335 245.028C424.915 247.506 424.205 251.011 424.205 255.545C424.205 258.568 424.523 261.136 425.159 263.25C425.795 265.364 426.71 266.972 427.903 268.074C429.108 269.176 430.557 269.727 432.25 269.727ZM450.932 282.818V246.818H454.818V250.977H455.295C455.591 250.523 456 249.943 456.523 249.239C457.057 248.523 457.818 247.886 458.807 247.33C459.807 246.761 461.159 246.477 462.864 246.477C465.068 246.477 467.011 247.028 468.693 248.131C470.375 249.233 471.688 250.795 472.631 252.818C473.574 254.841 474.045 257.227 474.045 259.977C474.045 262.75 473.574 265.153 472.631 267.188C471.688 269.21 470.381 270.778 468.71 271.892C467.04 272.994 465.114 273.545 462.932 273.545C461.25 273.545 459.903 273.267 458.892 272.71C457.881 272.142 457.102 271.5 456.557 270.784C456.011 270.057 455.591 269.455 455.295 268.977H454.955V282.818H450.932ZM454.886 259.909C454.886 261.886 455.176 263.631 455.756 265.142C456.335 266.642 457.182 267.818 458.295 268.67C459.409 269.511 460.773 269.932 462.386 269.932C464.068 269.932 465.472 269.489 466.597 268.602C467.733 267.705 468.585 266.5 469.153 264.989C469.733 263.466 470.023 261.773 470.023 259.909C470.023 258.068 469.739 256.409 469.17 254.932C468.614 253.443 467.767 252.267 466.631 251.403C465.506 250.528 464.091 250.091 462.386 250.091C460.75 250.091 459.375 250.506 458.261 251.335C457.148 252.153 456.307 253.301 455.739 254.778C455.17 256.244 454.886 257.955 454.886 259.909ZM482.104 246.818L488.376 257.523L494.649 246.818H499.286L490.831 259.909L499.286 273H494.649L488.376 262.841L482.104 273H477.467L485.786 259.909L477.467 246.818H482.104Z" fill="white"/>
</svg>
