<svg width="1028" height="1028" viewBox="0 0 1028 1028" fill="none" xmlns="http://www.w3.org/2000/svg">
<rect x="2" y="462" width="376" height="564" rx="12" stroke="white" stroke-width="4" stroke-linecap="round" stroke-dasharray="12 12"/>
<rect x="650" y="378" width="376" height="564" rx="12" stroke="white" stroke-width="4" stroke-linecap="round" stroke-dasharray="12 12"/>
<path d="M417.568 413L408.023 378.091H412.318L419.614 406.523H419.955L427.386 378.091H432.159L439.591 406.523H439.932L447.227 378.091H451.523L441.977 413H437.614L429.909 385.182H429.636L421.932 413H417.568ZM456.739 408.534C455.898 408.534 455.176 408.233 454.574 407.631C453.972 407.028 453.67 406.307 453.67 405.466C453.67 404.625 453.972 403.903 454.574 403.301C455.176 402.699 455.898 402.398 456.739 402.398C457.58 402.398 458.301 402.699 458.903 403.301C459.506 403.903 459.807 404.625 459.807 405.466C459.807 406.023 459.665 406.534 459.381 407C459.108 407.466 458.739 407.841 458.273 408.125C457.818 408.398 457.307 408.534 456.739 408.534ZM456.739 390.875C455.898 390.875 455.176 390.574 454.574 389.972C453.972 389.369 453.67 388.648 453.67 387.807C453.67 386.966 453.972 386.244 454.574 385.642C455.176 385.04 455.898 384.739 456.739 384.739C457.58 384.739 458.301 385.04 458.903 385.642C459.506 386.244 459.807 386.966 459.807 387.807C459.807 388.364 459.665 388.875 459.381 389.341C459.108 389.807 458.739 390.182 458.273 390.466C457.818 390.739 457.307 390.875 456.739 390.875ZM491.366 413.477C489.366 413.477 487.565 413.08 485.963 412.284C484.361 411.489 483.077 410.398 482.111 409.011C481.145 407.625 480.616 406.045 480.526 404.273H484.616C484.776 405.852 485.491 407.159 486.764 408.193C488.048 409.216 489.582 409.727 491.366 409.727C492.798 409.727 494.071 409.392 495.185 408.722C496.31 408.051 497.19 407.131 497.827 405.96C498.474 404.778 498.798 403.443 498.798 401.955C498.798 400.432 498.463 399.074 497.793 397.881C497.134 396.676 496.224 395.727 495.065 395.034C493.906 394.341 492.582 393.989 491.094 393.977C490.026 393.966 488.929 394.131 487.804 394.472C486.679 394.801 485.753 395.227 485.026 395.75L481.071 395.273L483.185 378.091H501.321V381.841H486.73L485.503 392.136H485.707C486.423 391.568 487.321 391.097 488.401 390.722C489.48 390.347 490.605 390.159 491.776 390.159C493.912 390.159 495.815 390.67 497.486 391.693C499.168 392.705 500.486 394.091 501.44 395.852C502.406 397.614 502.889 399.625 502.889 401.886C502.889 404.114 502.389 406.102 501.389 407.852C500.401 409.591 499.037 410.966 497.298 411.977C495.56 412.977 493.582 413.477 491.366 413.477ZM521.251 413.477C519.82 413.455 518.388 413.182 516.956 412.659C515.524 412.136 514.217 411.256 513.036 410.017C511.854 408.767 510.905 407.08 510.189 404.955C509.473 402.818 509.115 400.136 509.115 396.909C509.115 393.818 509.405 391.08 509.984 388.693C510.564 386.295 511.405 384.278 512.507 382.642C513.609 380.994 514.939 379.744 516.496 378.892C518.064 378.04 519.831 377.614 521.797 377.614C523.751 377.614 525.49 378.006 527.013 378.79C528.547 379.562 529.797 380.642 530.763 382.028C531.729 383.415 532.354 385.011 532.638 386.818H528.479C528.092 385.25 527.342 383.949 526.229 382.915C525.115 381.881 523.638 381.364 521.797 381.364C519.092 381.364 516.962 382.54 515.405 384.892C513.859 387.244 513.081 390.545 513.07 394.795H513.342C513.979 393.83 514.734 393.006 515.609 392.324C516.496 391.631 517.473 391.097 518.541 390.722C519.609 390.347 520.74 390.159 521.933 390.159C523.933 390.159 525.763 390.659 527.422 391.659C529.081 392.648 530.411 394.017 531.411 395.767C532.411 397.506 532.911 399.5 532.911 401.75C532.911 403.909 532.428 405.886 531.462 407.682C530.496 409.466 529.138 410.886 527.388 411.943C525.649 412.989 523.604 413.5 521.251 413.477ZM521.251 409.727C522.683 409.727 523.967 409.369 525.104 408.653C526.251 407.937 527.155 406.977 527.814 405.773C528.484 404.568 528.82 403.227 528.82 401.75C528.82 400.307 528.496 398.994 527.848 397.812C527.212 396.619 526.331 395.67 525.206 394.966C524.092 394.261 522.82 393.909 521.388 393.909C520.308 393.909 519.303 394.125 518.371 394.557C517.439 394.977 516.621 395.557 515.916 396.295C515.223 397.034 514.678 397.881 514.28 398.835C513.882 399.778 513.683 400.773 513.683 401.818C513.683 403.205 514.007 404.5 514.655 405.705C515.314 406.909 516.212 407.881 517.348 408.619C518.496 409.358 519.797 409.727 521.251 409.727ZM538.795 405.841V402.364L554.136 378.091H556.659V383.477H554.955L543.364 401.818V402.091H564.023V405.841H538.795ZM555.227 413V404.784V403.165V378.091H559.25V413H555.227ZM570.479 422.818V386.818H574.365V390.977H574.842C575.138 390.523 575.547 389.943 576.07 389.239C576.604 388.523 577.365 387.886 578.354 387.33C579.354 386.761 580.706 386.477 582.411 386.477C584.615 386.477 586.558 387.028 588.24 388.131C589.922 389.233 591.234 390.795 592.178 392.818C593.121 394.841 593.592 397.227 593.592 399.977C593.592 402.75 593.121 405.153 592.178 407.188C591.234 409.21 589.928 410.778 588.257 411.892C586.587 412.994 584.661 413.545 582.479 413.545C580.797 413.545 579.45 413.267 578.439 412.71C577.428 412.142 576.649 411.5 576.104 410.784C575.558 410.057 575.138 409.455 574.842 408.977H574.501V422.818H570.479ZM574.433 399.909C574.433 401.886 574.723 403.631 575.303 405.142C575.882 406.642 576.729 407.818 577.842 408.67C578.956 409.511 580.32 409.932 581.933 409.932C583.615 409.932 585.018 409.489 586.143 408.602C587.28 407.705 588.132 406.5 588.7 404.989C589.28 403.466 589.57 401.773 589.57 399.909C589.57 398.068 589.286 396.409 588.717 394.932C588.161 393.443 587.314 392.267 586.178 391.403C585.053 390.528 583.638 390.091 581.933 390.091C580.297 390.091 578.922 390.506 577.808 391.335C576.695 392.153 575.854 393.301 575.286 394.778C574.717 396.244 574.433 397.955 574.433 399.909ZM601.651 386.818L607.923 397.523L614.196 386.818H618.832L610.378 399.909L618.832 413H614.196L607.923 402.841L601.651 413H597.014L605.332 399.909L597.014 386.818H601.651ZM411.227 471V436.091H415.455V451.636H434.068V436.091H438.295V471H434.068V455.386H415.455V471H411.227ZM449.145 466.534C448.304 466.534 447.582 466.233 446.98 465.631C446.378 465.028 446.077 464.307 446.077 463.466C446.077 462.625 446.378 461.903 446.98 461.301C447.582 460.699 448.304 460.398 449.145 460.398C449.986 460.398 450.707 460.699 451.31 461.301C451.912 461.903 452.213 462.625 452.213 463.466C452.213 464.023 452.071 464.534 451.787 465C451.514 465.466 451.145 465.841 450.679 466.125C450.224 466.398 449.713 466.534 449.145 466.534ZM449.145 448.875C448.304 448.875 447.582 448.574 446.98 447.972C446.378 447.369 446.077 446.648 446.077 445.807C446.077 444.966 446.378 444.244 446.98 443.642C447.582 443.04 448.304 442.739 449.145 442.739C449.986 442.739 450.707 443.04 451.31 443.642C451.912 444.244 452.213 444.966 452.213 445.807C452.213 446.364 452.071 446.875 451.787 447.341C451.514 447.807 451.145 448.182 450.679 448.466C450.224 448.739 449.713 448.875 449.145 448.875ZM484.045 471.477C481.705 471.477 479.636 471.062 477.841 470.233C476.057 469.392 474.665 468.239 473.665 466.773C472.665 465.295 472.17 463.614 472.182 461.727C472.17 460.25 472.46 458.886 473.051 457.636C473.642 456.375 474.449 455.324 475.472 454.483C476.506 453.631 477.659 453.091 478.932 452.864V452.659C477.261 452.227 475.932 451.29 474.943 449.847C473.955 448.392 473.466 446.739 473.477 444.886C473.466 443.114 473.915 441.528 474.824 440.131C475.733 438.733 476.983 437.631 478.574 436.824C480.176 436.017 482 435.614 484.045 435.614C486.068 435.614 487.875 436.017 489.466 436.824C491.057 437.631 492.307 438.733 493.216 440.131C494.136 441.528 494.602 443.114 494.614 444.886C494.602 446.739 494.097 448.392 493.097 449.847C492.108 451.29 490.795 452.227 489.159 452.659V452.864C490.42 453.091 491.557 453.631 492.568 454.483C493.58 455.324 494.386 456.375 494.989 457.636C495.591 458.886 495.898 460.25 495.909 461.727C495.898 463.614 495.386 465.295 494.375 466.773C493.375 468.239 491.983 469.392 490.199 470.233C488.426 471.062 486.375 471.477 484.045 471.477ZM484.045 467.727C485.625 467.727 486.989 467.472 488.136 466.96C489.284 466.449 490.17 465.727 490.795 464.795C491.42 463.864 491.739 462.773 491.75 461.523C491.739 460.205 491.398 459.04 490.727 458.028C490.057 457.017 489.142 456.222 487.983 455.642C486.835 455.062 485.523 454.773 484.045 454.773C482.557 454.773 481.227 455.062 480.057 455.642C478.898 456.222 477.983 457.017 477.312 458.028C476.653 459.04 476.33 460.205 476.341 461.523C476.33 462.773 476.631 463.864 477.244 464.795C477.869 465.727 478.761 466.449 479.92 466.96C481.08 467.472 482.455 467.727 484.045 467.727ZM484.045 451.159C485.295 451.159 486.403 450.909 487.369 450.409C488.347 449.909 489.114 449.21 489.67 448.312C490.227 447.415 490.511 446.364 490.523 445.159C490.511 443.977 490.233 442.949 489.688 442.074C489.142 441.187 488.386 440.506 487.42 440.028C486.455 439.54 485.33 439.295 484.045 439.295C482.739 439.295 481.597 439.54 480.619 440.028C479.642 440.506 478.886 441.187 478.352 442.074C477.818 442.949 477.557 443.977 477.568 445.159C477.557 446.364 477.824 447.415 478.369 448.312C478.926 449.21 479.693 449.909 480.67 450.409C481.648 450.909 482.773 451.159 484.045 451.159ZM501.624 463.841V460.364L516.964 436.091H519.487V441.477H517.783L506.192 459.818V460.091H526.851V463.841H501.624ZM518.055 471V462.784V461.165V436.091H522.078V471H518.055ZM544.83 471.477C543.398 471.455 541.966 471.182 540.534 470.659C539.102 470.136 537.795 469.256 536.614 468.017C535.432 466.767 534.483 465.08 533.767 462.955C533.051 460.818 532.693 458.136 532.693 454.909C532.693 451.818 532.983 449.08 533.562 446.693C534.142 444.295 534.983 442.278 536.085 440.642C537.188 438.994 538.517 437.744 540.074 436.892C541.642 436.04 543.409 435.614 545.375 435.614C547.33 435.614 549.068 436.006 550.591 436.79C552.125 437.562 553.375 438.642 554.341 440.028C555.307 441.415 555.932 443.011 556.216 444.818H552.057C551.67 443.25 550.92 441.949 549.807 440.915C548.693 439.881 547.216 439.364 545.375 439.364C542.67 439.364 540.54 440.54 538.983 442.892C537.438 445.244 536.659 448.545 536.648 452.795H536.92C537.557 451.83 538.312 451.006 539.188 450.324C540.074 449.631 541.051 449.097 542.119 448.722C543.188 448.347 544.318 448.159 545.511 448.159C547.511 448.159 549.341 448.659 551 449.659C552.659 450.648 553.989 452.017 554.989 453.767C555.989 455.506 556.489 457.5 556.489 459.75C556.489 461.909 556.006 463.886 555.04 465.682C554.074 467.466 552.716 468.886 550.966 469.943C549.227 470.989 547.182 471.5 544.83 471.477ZM544.83 467.727C546.261 467.727 547.545 467.369 548.682 466.653C549.83 465.937 550.733 464.977 551.392 463.773C552.063 462.568 552.398 461.227 552.398 459.75C552.398 458.307 552.074 456.994 551.426 455.812C550.79 454.619 549.909 453.67 548.784 452.966C547.67 452.261 546.398 451.909 544.966 451.909C543.886 451.909 542.881 452.125 541.949 452.557C541.017 452.977 540.199 453.557 539.494 454.295C538.801 455.034 538.256 455.881 537.858 456.835C537.46 457.778 537.261 458.773 537.261 459.818C537.261 461.205 537.585 462.5 538.233 463.705C538.892 464.909 539.79 465.881 540.926 466.619C542.074 467.358 543.375 467.727 544.83 467.727ZM563.26 480.818V444.818H567.146V448.977H567.624C567.919 448.523 568.328 447.943 568.851 447.239C569.385 446.523 570.146 445.886 571.135 445.33C572.135 444.761 573.487 444.477 575.192 444.477C577.396 444.477 579.339 445.028 581.021 446.131C582.703 447.233 584.016 448.795 584.959 450.818C585.902 452.841 586.374 455.227 586.374 457.977C586.374 460.75 585.902 463.153 584.959 465.188C584.016 467.21 582.709 468.778 581.038 469.892C579.368 470.994 577.442 471.545 575.26 471.545C573.578 471.545 572.232 471.267 571.22 470.71C570.209 470.142 569.43 469.5 568.885 468.784C568.339 468.057 567.919 467.455 567.624 466.977H567.283V480.818H563.26ZM567.214 457.909C567.214 459.886 567.504 461.631 568.084 463.142C568.663 464.642 569.51 465.818 570.624 466.67C571.737 467.511 573.101 467.932 574.714 467.932C576.396 467.932 577.8 467.489 578.925 466.602C580.061 465.705 580.913 464.5 581.482 462.989C582.061 461.466 582.351 459.773 582.351 457.909C582.351 456.068 582.067 454.409 581.499 452.932C580.942 451.443 580.095 450.267 578.959 449.403C577.834 448.528 576.419 448.091 574.714 448.091C573.078 448.091 571.703 448.506 570.589 449.335C569.476 450.153 568.635 451.301 568.067 452.778C567.499 454.244 567.214 455.955 567.214 457.909ZM594.432 444.818L600.705 455.523L606.977 444.818H611.614L603.159 457.909L611.614 471H606.977L600.705 460.841L594.432 471H589.795L598.114 457.909L589.795 444.818H594.432Z" fill="white"/>
<path d="M125.045 736L118.682 712.727H121.545L126.409 731.682H126.636L131.591 712.727H134.773L139.727 731.682H139.955L144.818 712.727H147.682L141.318 736H138.409L133.273 717.455H133.091L127.955 736H125.045ZM151.159 733.023C150.598 733.023 150.117 732.822 149.716 732.42C149.314 732.019 149.114 731.538 149.114 730.977C149.114 730.417 149.314 729.936 149.716 729.534C150.117 729.133 150.598 728.932 151.159 728.932C151.72 728.932 152.201 729.133 152.602 729.534C153.004 729.936 153.205 730.417 153.205 730.977C153.205 731.348 153.11 731.689 152.92 732C152.739 732.311 152.492 732.561 152.182 732.75C151.879 732.932 151.538 733.023 151.159 733.023ZM151.159 721.25C150.598 721.25 150.117 721.049 149.716 720.648C149.314 720.246 149.114 719.765 149.114 719.205C149.114 718.644 149.314 718.163 149.716 717.761C150.117 717.36 150.598 717.159 151.159 717.159C151.72 717.159 152.201 717.36 152.602 717.761C153.004 718.163 153.205 718.644 153.205 719.205C153.205 719.576 153.11 719.917 152.92 720.227C152.739 720.538 152.492 720.788 152.182 720.977C151.879 721.159 151.538 721.25 151.159 721.25ZM174.244 736.318C172.911 736.318 171.71 736.053 170.642 735.523C169.574 734.992 168.718 734.265 168.074 733.341C167.43 732.417 167.078 731.364 167.017 730.182H169.744C169.85 731.235 170.328 732.106 171.176 732.795C172.032 733.477 173.055 733.818 174.244 733.818C175.199 733.818 176.047 733.595 176.79 733.148C177.54 732.701 178.127 732.087 178.551 731.307C178.983 730.519 179.199 729.629 179.199 728.636C179.199 727.621 178.975 726.716 178.528 725.92C178.089 725.117 177.483 724.485 176.71 724.023C175.938 723.561 175.055 723.326 174.062 723.318C173.35 723.311 172.619 723.42 171.869 723.648C171.119 723.867 170.502 724.152 170.017 724.5L167.381 724.182L168.79 712.727H180.881V715.227H171.153L170.335 722.091H170.472C170.949 721.712 171.547 721.398 172.267 721.148C172.987 720.898 173.737 720.773 174.517 720.773C175.941 720.773 177.21 721.114 178.324 721.795C179.445 722.47 180.324 723.394 180.96 724.568C181.604 725.742 181.926 727.083 181.926 728.591C181.926 730.076 181.593 731.402 180.926 732.568C180.267 733.727 179.358 734.644 178.199 735.318C177.04 735.985 175.722 736.318 174.244 736.318ZM194.168 736.318C193.213 736.303 192.259 736.121 191.304 735.773C190.349 735.424 189.478 734.837 188.69 734.011C187.902 733.178 187.27 732.053 186.793 730.636C186.315 729.212 186.077 727.424 186.077 725.273C186.077 723.212 186.27 721.386 186.656 719.795C187.043 718.197 187.603 716.852 188.338 715.761C189.073 714.663 189.959 713.83 190.997 713.261C192.043 712.693 193.221 712.409 194.531 712.409C195.834 712.409 196.993 712.67 198.009 713.193C199.031 713.708 199.865 714.428 200.509 715.352C201.152 716.277 201.569 717.341 201.759 718.545H198.986C198.728 717.5 198.228 716.633 197.486 715.943C196.743 715.254 195.759 714.909 194.531 714.909C192.728 714.909 191.308 715.693 190.27 717.261C189.24 718.83 188.721 721.03 188.713 723.864H188.895C189.319 723.22 189.823 722.67 190.406 722.216C190.997 721.754 191.649 721.398 192.361 721.148C193.073 720.898 193.827 720.773 194.622 720.773C195.955 720.773 197.175 721.106 198.281 721.773C199.387 722.432 200.274 723.345 200.94 724.511C201.607 725.67 201.94 727 201.94 728.5C201.94 729.939 201.618 731.258 200.974 732.455C200.33 733.644 199.425 734.591 198.259 735.295C197.099 735.992 195.736 736.333 194.168 736.318ZM194.168 733.818C195.122 733.818 195.978 733.58 196.736 733.102C197.501 732.625 198.103 731.985 198.543 731.182C198.99 730.379 199.213 729.485 199.213 728.5C199.213 727.538 198.997 726.663 198.565 725.875C198.141 725.08 197.554 724.447 196.804 723.977C196.062 723.508 195.213 723.273 194.259 723.273C193.539 723.273 192.868 723.417 192.247 723.705C191.626 723.985 191.08 724.371 190.611 724.864C190.149 725.356 189.785 725.92 189.52 726.557C189.255 727.186 189.122 727.848 189.122 728.545C189.122 729.47 189.338 730.333 189.77 731.136C190.209 731.939 190.808 732.587 191.565 733.08C192.33 733.572 193.198 733.818 194.168 733.818ZM205.864 731.227V728.909L216.091 712.727H217.773V716.318H216.636L208.909 728.545V728.727H222.682V731.227H205.864ZM216.818 736V730.523V729.443V712.727H219.5V736H216.818ZM226.986 742.545V718.545H229.577V721.318H229.895C230.092 721.015 230.365 720.629 230.713 720.159C231.069 719.682 231.577 719.258 232.236 718.886C232.902 718.508 233.804 718.318 234.94 718.318C236.41 718.318 237.705 718.686 238.827 719.42C239.948 720.155 240.823 721.197 241.452 722.545C242.08 723.894 242.395 725.485 242.395 727.318C242.395 729.167 242.08 730.769 241.452 732.125C240.823 733.473 239.952 734.519 238.838 735.261C237.724 735.996 236.44 736.364 234.986 736.364C233.865 736.364 232.967 736.178 232.293 735.807C231.618 735.428 231.099 735 230.736 734.523C230.372 734.038 230.092 733.636 229.895 733.318H229.668V742.545H226.986ZM229.622 727.273C229.622 728.591 229.815 729.754 230.202 730.761C230.588 731.761 231.152 732.545 231.895 733.114C232.637 733.674 233.546 733.955 234.622 733.955C235.743 733.955 236.679 733.659 237.429 733.068C238.187 732.47 238.755 731.667 239.134 730.659C239.52 729.644 239.713 728.515 239.713 727.273C239.713 726.045 239.524 724.939 239.145 723.955C238.774 722.962 238.209 722.178 237.452 721.602C236.702 721.019 235.759 720.727 234.622 720.727C233.531 720.727 232.615 721.004 231.872 721.557C231.13 722.102 230.569 722.867 230.19 723.852C229.812 724.83 229.622 725.97 229.622 727.273ZM247.767 718.545L251.949 725.682L256.131 718.545H259.222L253.585 727.273L259.222 736H256.131L251.949 729.227L247.767 736H244.676L250.222 727.273L244.676 718.545H247.767ZM120.818 775V751.727H123.636V762.091H136.045V751.727H138.864V775H136.045V764.591H123.636V775H120.818ZM146.097 772.023C145.536 772.023 145.055 771.822 144.653 771.42C144.252 771.019 144.051 770.538 144.051 769.977C144.051 769.417 144.252 768.936 144.653 768.534C145.055 768.133 145.536 767.932 146.097 767.932C146.657 767.932 147.138 768.133 147.54 768.534C147.941 768.936 148.142 769.417 148.142 769.977C148.142 770.348 148.047 770.689 147.858 771C147.676 771.311 147.43 771.561 147.119 771.75C146.816 771.932 146.475 772.023 146.097 772.023ZM146.097 760.25C145.536 760.25 145.055 760.049 144.653 759.648C144.252 759.246 144.051 758.765 144.051 758.205C144.051 757.644 144.252 757.163 144.653 756.761C145.055 756.36 145.536 756.159 146.097 756.159C146.657 756.159 147.138 756.36 147.54 756.761C147.941 757.163 148.142 757.644 148.142 758.205C148.142 758.576 148.047 758.917 147.858 759.227C147.676 759.538 147.43 759.788 147.119 759.977C146.816 760.159 146.475 760.25 146.097 760.25ZM169.773 775.318C168.273 775.318 166.936 775.061 165.761 774.545C164.595 774.03 163.667 773.314 162.977 772.398C162.295 771.473 161.924 770.402 161.864 769.182H164.727C164.788 769.932 165.045 770.58 165.5 771.125C165.955 771.663 166.549 772.08 167.284 772.375C168.019 772.67 168.833 772.818 169.727 772.818C170.727 772.818 171.614 772.644 172.386 772.295C173.159 771.947 173.765 771.462 174.205 770.841C174.644 770.22 174.864 769.5 174.864 768.682C174.864 767.826 174.652 767.072 174.227 766.42C173.803 765.761 173.182 765.246 172.364 764.875C171.545 764.504 170.545 764.318 169.364 764.318H167.5V761.818H169.364C170.288 761.818 171.098 761.652 171.795 761.318C172.5 760.985 173.049 760.515 173.443 759.909C173.845 759.303 174.045 758.591 174.045 757.773C174.045 756.985 173.871 756.299 173.523 755.716C173.174 755.133 172.682 754.678 172.045 754.352C171.417 754.027 170.674 753.864 169.818 753.864C169.015 753.864 168.258 754.011 167.545 754.307C166.841 754.595 166.265 755.015 165.818 755.568C165.371 756.114 165.129 756.773 165.091 757.545H162.364C162.409 756.326 162.777 755.258 163.466 754.341C164.155 753.417 165.057 752.697 166.17 752.182C167.292 751.667 168.523 751.409 169.864 751.409C171.303 751.409 172.538 751.701 173.568 752.284C174.598 752.86 175.39 753.621 175.943 754.568C176.496 755.515 176.773 756.538 176.773 757.636C176.773 758.947 176.428 760.064 175.739 760.989C175.057 761.913 174.129 762.553 172.955 762.909V763.091C174.424 763.333 175.572 763.958 176.398 764.966C177.223 765.966 177.636 767.205 177.636 768.682C177.636 769.947 177.292 771.083 176.602 772.091C175.92 773.091 174.989 773.879 173.807 774.455C172.625 775.03 171.28 775.318 169.773 775.318ZM183.011 775L193.42 754.409V754.227H181.42V751.727H196.33V754.364L185.966 775H183.011ZM207.793 775.318C206.838 775.303 205.884 775.121 204.929 774.773C203.974 774.424 203.103 773.837 202.315 773.011C201.527 772.178 200.895 771.053 200.418 769.636C199.94 768.212 199.702 766.424 199.702 764.273C199.702 762.212 199.895 760.386 200.281 758.795C200.668 757.197 201.228 755.852 201.963 754.761C202.698 753.663 203.584 752.83 204.622 752.261C205.668 751.693 206.846 751.409 208.156 751.409C209.459 751.409 210.618 751.67 211.634 752.193C212.656 752.708 213.49 753.428 214.134 754.352C214.777 755.277 215.194 756.341 215.384 757.545H212.611C212.353 756.5 211.853 755.633 211.111 754.943C210.368 754.254 209.384 753.909 208.156 753.909C206.353 753.909 204.933 754.693 203.895 756.261C202.865 757.83 202.346 760.03 202.338 762.864H202.52C202.944 762.22 203.448 761.67 204.031 761.216C204.622 760.754 205.274 760.398 205.986 760.148C206.698 759.898 207.452 759.773 208.247 759.773C209.58 759.773 210.8 760.106 211.906 760.773C213.012 761.432 213.899 762.345 214.565 763.511C215.232 764.67 215.565 766 215.565 767.5C215.565 768.939 215.243 770.258 214.599 771.455C213.955 772.644 213.05 773.591 211.884 774.295C210.724 774.992 209.361 775.333 207.793 775.318ZM207.793 772.818C208.747 772.818 209.603 772.58 210.361 772.102C211.126 771.625 211.728 770.985 212.168 770.182C212.615 769.379 212.838 768.485 212.838 767.5C212.838 766.538 212.622 765.663 212.19 764.875C211.766 764.08 211.179 763.447 210.429 762.977C209.687 762.508 208.838 762.273 207.884 762.273C207.164 762.273 206.493 762.417 205.872 762.705C205.251 762.985 204.705 763.371 204.236 763.864C203.774 764.356 203.41 764.92 203.145 765.557C202.88 766.186 202.747 766.848 202.747 767.545C202.747 768.47 202.963 769.333 203.395 770.136C203.834 770.939 204.433 771.587 205.19 772.08C205.955 772.572 206.823 772.818 207.793 772.818ZM220.08 781.545V757.545H222.67V760.318H222.989C223.186 760.015 223.458 759.629 223.807 759.159C224.163 758.682 224.67 758.258 225.33 757.886C225.996 757.508 226.898 757.318 228.034 757.318C229.504 757.318 230.799 757.686 231.92 758.42C233.042 759.155 233.917 760.197 234.545 761.545C235.174 762.894 235.489 764.485 235.489 766.318C235.489 768.167 235.174 769.769 234.545 771.125C233.917 772.473 233.045 773.519 231.932 774.261C230.818 774.996 229.534 775.364 228.08 775.364C226.958 775.364 226.061 775.178 225.386 774.807C224.712 774.428 224.193 774 223.83 773.523C223.466 773.038 223.186 772.636 222.989 772.318H222.761V781.545H220.08ZM222.716 766.273C222.716 767.591 222.909 768.754 223.295 769.761C223.682 770.761 224.246 771.545 224.989 772.114C225.731 772.674 226.64 772.955 227.716 772.955C228.837 772.955 229.773 772.659 230.523 772.068C231.28 771.47 231.848 770.667 232.227 769.659C232.614 768.644 232.807 767.515 232.807 766.273C232.807 765.045 232.617 763.939 232.239 762.955C231.867 761.962 231.303 761.178 230.545 760.602C229.795 760.019 228.852 759.727 227.716 759.727C226.625 759.727 225.708 760.004 224.966 760.557C224.223 761.102 223.663 761.867 223.284 762.852C222.905 763.83 222.716 764.97 222.716 766.273ZM240.861 757.545L245.043 764.682L249.224 757.545H252.315L246.679 766.273L252.315 775H249.224L245.043 768.227L240.861 775H237.77L243.315 766.273L237.77 757.545H240.861Z" fill="white"/>
<path d="M773.045 652L766.682 628.727H769.545L774.409 647.682H774.636L779.591 628.727H782.773L787.727 647.682H787.955L792.818 628.727H795.682L789.318 652H786.409L781.273 633.455H781.091L775.955 652H773.045ZM799.159 649.023C798.598 649.023 798.117 648.822 797.716 648.42C797.314 648.019 797.114 647.538 797.114 646.977C797.114 646.417 797.314 645.936 797.716 645.534C798.117 645.133 798.598 644.932 799.159 644.932C799.72 644.932 800.201 645.133 800.602 645.534C801.004 645.936 801.205 646.417 801.205 646.977C801.205 647.348 801.11 647.689 800.92 648C800.739 648.311 800.492 648.561 800.182 648.75C799.879 648.932 799.538 649.023 799.159 649.023ZM799.159 637.25C798.598 637.25 798.117 637.049 797.716 636.648C797.314 636.246 797.114 635.765 797.114 635.205C797.114 634.644 797.314 634.163 797.716 633.761C798.117 633.36 798.598 633.159 799.159 633.159C799.72 633.159 800.201 633.36 800.602 633.761C801.004 634.163 801.205 634.644 801.205 635.205C801.205 635.576 801.11 635.917 800.92 636.227C800.739 636.538 800.492 636.788 800.182 636.977C799.879 637.159 799.538 637.25 799.159 637.25ZM822.244 652.318C820.911 652.318 819.71 652.053 818.642 651.523C817.574 650.992 816.718 650.265 816.074 649.341C815.43 648.417 815.078 647.364 815.017 646.182H817.744C817.85 647.235 818.328 648.106 819.176 648.795C820.032 649.477 821.055 649.818 822.244 649.818C823.199 649.818 824.047 649.595 824.79 649.148C825.54 648.701 826.127 648.087 826.551 647.307C826.983 646.519 827.199 645.629 827.199 644.636C827.199 643.621 826.975 642.716 826.528 641.92C826.089 641.117 825.483 640.485 824.71 640.023C823.938 639.561 823.055 639.326 822.062 639.318C821.35 639.311 820.619 639.42 819.869 639.648C819.119 639.867 818.502 640.152 818.017 640.5L815.381 640.182L816.79 628.727H828.881V631.227H819.153L818.335 638.091H818.472C818.949 637.712 819.547 637.398 820.267 637.148C820.987 636.898 821.737 636.773 822.517 636.773C823.941 636.773 825.21 637.114 826.324 637.795C827.445 638.47 828.324 639.394 828.96 640.568C829.604 641.742 829.926 643.083 829.926 644.591C829.926 646.076 829.593 647.402 828.926 648.568C828.267 649.727 827.358 650.644 826.199 651.318C825.04 651.985 823.722 652.318 822.244 652.318ZM842.168 652.318C841.213 652.303 840.259 652.121 839.304 651.773C838.349 651.424 837.478 650.837 836.69 650.011C835.902 649.178 835.27 648.053 834.793 646.636C834.315 645.212 834.077 643.424 834.077 641.273C834.077 639.212 834.27 637.386 834.656 635.795C835.043 634.197 835.603 632.852 836.338 631.761C837.073 630.663 837.959 629.83 838.997 629.261C840.043 628.693 841.221 628.409 842.531 628.409C843.834 628.409 844.993 628.67 846.009 629.193C847.031 629.708 847.865 630.428 848.509 631.352C849.152 632.277 849.569 633.341 849.759 634.545H846.986C846.728 633.5 846.228 632.633 845.486 631.943C844.743 631.254 843.759 630.909 842.531 630.909C840.728 630.909 839.308 631.693 838.27 633.261C837.24 634.83 836.721 637.03 836.713 639.864H836.895C837.319 639.22 837.823 638.67 838.406 638.216C838.997 637.754 839.649 637.398 840.361 637.148C841.073 636.898 841.827 636.773 842.622 636.773C843.955 636.773 845.175 637.106 846.281 637.773C847.387 638.432 848.274 639.345 848.94 640.511C849.607 641.67 849.94 643 849.94 644.5C849.94 645.939 849.618 647.258 848.974 648.455C848.33 649.644 847.425 650.591 846.259 651.295C845.099 651.992 843.736 652.333 842.168 652.318ZM842.168 649.818C843.122 649.818 843.978 649.58 844.736 649.102C845.501 648.625 846.103 647.985 846.543 647.182C846.99 646.379 847.213 645.485 847.213 644.5C847.213 643.538 846.997 642.663 846.565 641.875C846.141 641.08 845.554 640.447 844.804 639.977C844.062 639.508 843.213 639.273 842.259 639.273C841.539 639.273 840.868 639.417 840.247 639.705C839.626 639.985 839.08 640.371 838.611 640.864C838.149 641.356 837.785 641.92 837.52 642.557C837.255 643.186 837.122 643.848 837.122 644.545C837.122 645.47 837.338 646.333 837.77 647.136C838.209 647.939 838.808 648.587 839.565 649.08C840.33 649.572 841.198 649.818 842.168 649.818ZM853.864 647.227V644.909L864.091 628.727H865.773V632.318H864.636L856.909 644.545V644.727H870.682V647.227H853.864ZM864.818 652V646.523V645.443V628.727H867.5V652H864.818ZM874.986 658.545V634.545H877.577V637.318H877.895C878.092 637.015 878.365 636.629 878.713 636.159C879.069 635.682 879.577 635.258 880.236 634.886C880.902 634.508 881.804 634.318 882.94 634.318C884.41 634.318 885.705 634.686 886.827 635.42C887.948 636.155 888.823 637.197 889.452 638.545C890.08 639.894 890.395 641.485 890.395 643.318C890.395 645.167 890.08 646.769 889.452 648.125C888.823 649.473 887.952 650.519 886.838 651.261C885.724 651.996 884.44 652.364 882.986 652.364C881.865 652.364 880.967 652.178 880.293 651.807C879.618 651.428 879.099 651 878.736 650.523C878.372 650.038 878.092 649.636 877.895 649.318H877.668V658.545H874.986ZM877.622 643.273C877.622 644.591 877.815 645.754 878.202 646.761C878.588 647.761 879.152 648.545 879.895 649.114C880.637 649.674 881.546 649.955 882.622 649.955C883.743 649.955 884.679 649.659 885.429 649.068C886.187 648.47 886.755 647.667 887.134 646.659C887.52 645.644 887.713 644.515 887.713 643.273C887.713 642.045 887.524 640.939 887.145 639.955C886.774 638.962 886.209 638.178 885.452 637.602C884.702 637.019 883.759 636.727 882.622 636.727C881.531 636.727 880.615 637.004 879.872 637.557C879.13 638.102 878.569 638.867 878.19 639.852C877.812 640.83 877.622 641.97 877.622 643.273ZM895.767 634.545L899.949 641.682L904.131 634.545H907.222L901.585 643.273L907.222 652H904.131L899.949 645.227L895.767 652H892.676L898.222 643.273L892.676 634.545H895.767ZM768.818 691V667.727H771.636V678.091H784.045V667.727H786.864V691H784.045V680.591H771.636V691H768.818ZM794.097 688.023C793.536 688.023 793.055 687.822 792.653 687.42C792.252 687.019 792.051 686.538 792.051 685.977C792.051 685.417 792.252 684.936 792.653 684.534C793.055 684.133 793.536 683.932 794.097 683.932C794.657 683.932 795.138 684.133 795.54 684.534C795.941 684.936 796.142 685.417 796.142 685.977C796.142 686.348 796.047 686.689 795.858 687C795.676 687.311 795.43 687.561 795.119 687.75C794.816 687.932 794.475 688.023 794.097 688.023ZM794.097 676.25C793.536 676.25 793.055 676.049 792.653 675.648C792.252 675.246 792.051 674.765 792.051 674.205C792.051 673.644 792.252 673.163 792.653 672.761C793.055 672.36 793.536 672.159 794.097 672.159C794.657 672.159 795.138 672.36 795.54 672.761C795.941 673.163 796.142 673.644 796.142 674.205C796.142 674.576 796.047 674.917 795.858 675.227C795.676 675.538 795.43 675.788 795.119 675.977C794.816 676.159 794.475 676.25 794.097 676.25ZM817.773 691.318C816.273 691.318 814.936 691.061 813.761 690.545C812.595 690.03 811.667 689.314 810.977 688.398C810.295 687.473 809.924 686.402 809.864 685.182H812.727C812.788 685.932 813.045 686.58 813.5 687.125C813.955 687.663 814.549 688.08 815.284 688.375C816.019 688.67 816.833 688.818 817.727 688.818C818.727 688.818 819.614 688.644 820.386 688.295C821.159 687.947 821.765 687.462 822.205 686.841C822.644 686.22 822.864 685.5 822.864 684.682C822.864 683.826 822.652 683.072 822.227 682.42C821.803 681.761 821.182 681.246 820.364 680.875C819.545 680.504 818.545 680.318 817.364 680.318H815.5V677.818H817.364C818.288 677.818 819.098 677.652 819.795 677.318C820.5 676.985 821.049 676.515 821.443 675.909C821.845 675.303 822.045 674.591 822.045 673.773C822.045 672.985 821.871 672.299 821.523 671.716C821.174 671.133 820.682 670.678 820.045 670.352C819.417 670.027 818.674 669.864 817.818 669.864C817.015 669.864 816.258 670.011 815.545 670.307C814.841 670.595 814.265 671.015 813.818 671.568C813.371 672.114 813.129 672.773 813.091 673.545H810.364C810.409 672.326 810.777 671.258 811.466 670.341C812.155 669.417 813.057 668.697 814.17 668.182C815.292 667.667 816.523 667.409 817.864 667.409C819.303 667.409 820.538 667.701 821.568 668.284C822.598 668.86 823.39 669.621 823.943 670.568C824.496 671.515 824.773 672.538 824.773 673.636C824.773 674.947 824.428 676.064 823.739 676.989C823.057 677.913 822.129 678.553 820.955 678.909V679.091C822.424 679.333 823.572 679.958 824.398 680.966C825.223 681.966 825.636 683.205 825.636 684.682C825.636 685.947 825.292 687.083 824.602 688.091C823.92 689.091 822.989 689.879 821.807 690.455C820.625 691.03 819.28 691.318 817.773 691.318ZM831.011 691L841.42 670.409V670.227H829.42V667.727H844.33V670.364L833.966 691H831.011ZM855.793 691.318C854.838 691.303 853.884 691.121 852.929 690.773C851.974 690.424 851.103 689.837 850.315 689.011C849.527 688.178 848.895 687.053 848.418 685.636C847.94 684.212 847.702 682.424 847.702 680.273C847.702 678.212 847.895 676.386 848.281 674.795C848.668 673.197 849.228 671.852 849.963 670.761C850.698 669.663 851.584 668.83 852.622 668.261C853.668 667.693 854.846 667.409 856.156 667.409C857.459 667.409 858.618 667.67 859.634 668.193C860.656 668.708 861.49 669.428 862.134 670.352C862.777 671.277 863.194 672.341 863.384 673.545H860.611C860.353 672.5 859.853 671.633 859.111 670.943C858.368 670.254 857.384 669.909 856.156 669.909C854.353 669.909 852.933 670.693 851.895 672.261C850.865 673.83 850.346 676.03 850.338 678.864H850.52C850.944 678.22 851.448 677.67 852.031 677.216C852.622 676.754 853.274 676.398 853.986 676.148C854.698 675.898 855.452 675.773 856.247 675.773C857.58 675.773 858.8 676.106 859.906 676.773C861.012 677.432 861.899 678.345 862.565 679.511C863.232 680.67 863.565 682 863.565 683.5C863.565 684.939 863.243 686.258 862.599 687.455C861.955 688.644 861.05 689.591 859.884 690.295C858.724 690.992 857.361 691.333 855.793 691.318ZM855.793 688.818C856.747 688.818 857.603 688.58 858.361 688.102C859.126 687.625 859.728 686.985 860.168 686.182C860.615 685.379 860.838 684.485 860.838 683.5C860.838 682.538 860.622 681.663 860.19 680.875C859.766 680.08 859.179 679.447 858.429 678.977C857.687 678.508 856.838 678.273 855.884 678.273C855.164 678.273 854.493 678.417 853.872 678.705C853.251 678.985 852.705 679.371 852.236 679.864C851.774 680.356 851.41 680.92 851.145 681.557C850.88 682.186 850.747 682.848 850.747 683.545C850.747 684.47 850.963 685.333 851.395 686.136C851.834 686.939 852.433 687.587 853.19 688.08C853.955 688.572 854.823 688.818 855.793 688.818ZM868.08 697.545V673.545H870.67V676.318H870.989C871.186 676.015 871.458 675.629 871.807 675.159C872.163 674.682 872.67 674.258 873.33 673.886C873.996 673.508 874.898 673.318 876.034 673.318C877.504 673.318 878.799 673.686 879.92 674.42C881.042 675.155 881.917 676.197 882.545 677.545C883.174 678.894 883.489 680.485 883.489 682.318C883.489 684.167 883.174 685.769 882.545 687.125C881.917 688.473 881.045 689.519 879.932 690.261C878.818 690.996 877.534 691.364 876.08 691.364C874.958 691.364 874.061 691.178 873.386 690.807C872.712 690.428 872.193 690 871.83 689.523C871.466 689.038 871.186 688.636 870.989 688.318H870.761V697.545H868.08ZM870.716 682.273C870.716 683.591 870.909 684.754 871.295 685.761C871.682 686.761 872.246 687.545 872.989 688.114C873.731 688.674 874.64 688.955 875.716 688.955C876.837 688.955 877.773 688.659 878.523 688.068C879.28 687.47 879.848 686.667 880.227 685.659C880.614 684.644 880.807 683.515 880.807 682.273C880.807 681.045 880.617 679.939 880.239 678.955C879.867 677.962 879.303 677.178 878.545 676.602C877.795 676.019 876.852 675.727 875.716 675.727C874.625 675.727 873.708 676.004 872.966 676.557C872.223 677.102 871.663 677.867 871.284 678.852C870.905 679.83 870.716 680.97 870.716 682.273ZM888.861 673.545L893.043 680.682L897.224 673.545H900.315L894.679 682.273L900.315 691H897.224L893.043 684.227L888.861 691H885.77L891.315 682.273L885.77 673.545H888.861Z" fill="white"/>
<path fill-rule="evenodd" clip-rule="evenodd" d="M244 4C242.64 4 241.349 4.27023 240.173 4.75802C239.152 5.18113 237.982 4.697 237.559 3.67668C237.136 2.65636 237.62 1.48623 238.64 1.06312C240.294 0.377444 242.105 0 244 0H249.87C250.974 0 251.87 0.89543 251.87 2C251.87 3.10457 250.974 4 249.87 4H244ZM259.609 2C259.609 0.89543 260.504 0 261.609 0H273.348C274.452 0 275.348 0.89543 275.348 2C275.348 3.10457 274.452 4 273.348 4H261.609C260.504 4 259.609 3.10457 259.609 2ZM283.087 2C283.087 0.89543 283.982 0 285.087 0H296.826C297.931 0 298.826 0.89543 298.826 2C298.826 3.10457 297.931 4 296.826 4H285.087C283.982 4 283.087 3.10457 283.087 2ZM306.565 2C306.565 0.89543 307.461 0 308.565 0H320.304C321.409 0 322.304 0.89543 322.304 2C322.304 3.10457 321.409 4 320.304 4H308.565C307.461 4 306.565 3.10457 306.565 2ZM330.043 2C330.043 0.89543 330.939 0 332.043 0H343.783C344.887 0 345.783 0.89543 345.783 2C345.783 3.10457 344.887 4 343.783 4H332.043C330.939 4 330.043 3.10457 330.043 2ZM353.522 2C353.522 0.89543 354.417 0 355.522 0H367.261C368.365 0 369.261 0.89543 369.261 2C369.261 3.10457 368.365 4 367.261 4H355.522C354.417 4 353.522 3.10457 353.522 2ZM377 2C377 0.89543 377.895 0 379 0H390.739C391.844 0 392.739 0.89543 392.739 2C392.739 3.10457 391.844 4 390.739 4H379C377.895 4 377 3.10457 377 2ZM400.478 2C400.478 0.89543 401.374 0 402.478 0H414.217C415.322 0 416.217 0.89543 416.217 2C416.217 3.10457 415.322 4 414.217 4H402.478C401.374 4 400.478 3.10457 400.478 2ZM423.957 2C423.957 0.89543 424.852 0 425.957 0H437.696C438.8 0 439.696 0.89543 439.696 2C439.696 3.10457 438.8 4 437.696 4H425.957C424.852 4 423.957 3.10457 423.957 2ZM447.435 2C447.435 0.89543 448.33 0 449.435 0H461.174C462.279 0 463.174 0.89543 463.174 2C463.174 3.10457 462.279 4 461.174 4H449.435C448.33 4 447.435 3.10457 447.435 2ZM470.913 2C470.913 0.89543 471.809 0 472.913 0H484.652C485.757 0 486.652 0.89543 486.652 2C486.652 3.10457 485.757 4 484.652 4H472.913C471.809 4 470.913 3.10457 470.913 2ZM494.391 2C494.391 0.89543 495.287 0 496.391 0H508.13C509.235 0 510.13 0.89543 510.13 2C510.13 3.10457 509.235 4 508.13 4H496.391C495.287 4 494.391 3.10457 494.391 2ZM517.87 2C517.87 0.89543 518.765 0 519.87 0H531.609C532.713 0 533.609 0.89543 533.609 2C533.609 3.10457 532.713 4 531.609 4H519.87C518.765 4 517.87 3.10457 517.87 2ZM541.348 2C541.348 0.89543 542.243 0 543.348 0H555.087C556.192 0 557.087 0.89543 557.087 2C557.087 3.10457 556.192 4 555.087 4H543.348C542.243 4 541.348 3.10457 541.348 2ZM564.826 2C564.826 0.89543 565.722 0 566.826 0H578.565C579.67 0 580.565 0.89543 580.565 2C580.565 3.10457 579.67 4 578.565 4H566.826C565.722 4 564.826 3.10457 564.826 2ZM588.304 2C588.304 0.89543 589.2 0 590.304 0H602.044C603.148 0 604.044 0.89543 604.044 2C604.044 3.10457 603.148 4 602.044 4H590.304C589.2 4 588.304 3.10457 588.304 2ZM611.783 2C611.783 0.89543 612.678 0 613.783 0H625.522C626.626 0 627.522 0.89543 627.522 2C627.522 3.10457 626.626 4 625.522 4H613.783C612.678 4 611.783 3.10457 611.783 2ZM635.261 2C635.261 0.89543 636.156 0 637.261 0H649C650.105 0 651 0.89543 651 2C651 3.10457 650.105 4 649 4H637.261C636.156 4 635.261 3.10457 635.261 2ZM658.739 2C658.739 0.89543 659.635 0 660.739 0H672.478C673.583 0 674.478 0.89543 674.478 2C674.478 3.10457 673.583 4 672.478 4H660.739C659.635 4 658.739 3.10457 658.739 2ZM682.217 2C682.217 0.89543 683.113 0 684.217 0H695.957C697.061 0 697.957 0.89543 697.957 2C697.957 3.10457 697.061 4 695.957 4H684.217C683.113 4 682.217 3.10457 682.217 2ZM705.696 2C705.696 0.89543 706.591 0 707.696 0H719.435C720.539 0 721.435 0.89543 721.435 2C721.435 3.10457 720.539 4 719.435 4H707.696C706.591 4 705.696 3.10457 705.696 2ZM729.174 2C729.174 0.89543 730.069 0 731.174 0H742.913C744.018 0 744.913 0.89543 744.913 2C744.913 3.10457 744.018 4 742.913 4H731.174C730.069 4 729.174 3.10457 729.174 2ZM752.652 2C752.652 0.89543 753.548 0 754.652 0H766.391C767.496 0 768.391 0.89543 768.391 2C768.391 3.10457 767.496 4 766.391 4H754.652C753.548 4 752.652 3.10457 752.652 2ZM776.131 2C776.131 0.89543 777.026 0 778.131 0H784C785.895 0 787.706 0.377443 789.36 1.06311C790.38 1.48622 790.864 2.65635 790.441 3.67667C790.018 4.69699 788.848 5.18113 787.827 4.75802C786.651 4.27023 785.36 4 784 4H778.131C777.026 4 776.131 3.10457 776.131 2ZM794.323 7.5591C795.344 7.13599 796.514 7.62012 796.937 8.64044C797.623 10.2939 798 12.1054 798 14V20.0441C798 21.1487 797.105 22.0441 796 22.0441C794.895 22.0441 794 21.1487 794 20.0441V14C794 12.6404 793.73 11.349 793.242 10.1727C792.819 9.15234 793.303 7.9822 794.323 7.5591ZM233.677 7.55911C234.697 7.98222 235.181 9.15235 234.758 10.1727C234.27 11.349 234 12.6404 234 14V20.0437C234 21.1483 233.105 22.0437 232 22.0437C230.895 22.0437 230 21.1483 230 20.0437V14C230 12.1054 230.377 10.2939 231.063 8.64045C231.486 7.62013 232.656 7.136 233.677 7.55911ZM232 30.132C233.105 30.132 234 31.0274 234 32.132V44.2202C234 45.3248 233.105 46.2202 232 46.2202C230.895 46.2202 230 45.3248 230 44.2202V32.132C230 31.0274 230.895 30.132 232 30.132ZM796 30.1324C797.105 30.1324 798 31.0278 798 32.1324V44.2206C798 45.3252 797.105 46.2206 796 46.2206C794.895 46.2206 794 45.3252 794 44.2206V32.1324C794 31.0278 794.895 30.1324 796 30.1324ZM232 54.3085C233.105 54.3085 234 55.2039 234 56.3085V68.3967C234 69.5013 233.105 70.3967 232 70.3967C230.895 70.3967 230 69.5013 230 68.3967V56.3085C230 55.2039 230.895 54.3085 232 54.3085ZM796 54.3088C797.105 54.3088 798 55.2043 798 56.3088V68.3971C798 69.5016 797.105 70.3971 796 70.3971C794.895 70.3971 794 69.5016 794 68.3971V56.3088C794 55.2043 794.895 54.3088 796 54.3088ZM232 78.485C233.105 78.485 234 79.3804 234 80.485V92.5733C234 93.6778 233.105 94.5733 232 94.5733C230.895 94.5733 230 93.6778 230 92.5733V80.485C230 79.3804 230.895 78.485 232 78.485ZM796 78.4853C797.105 78.4853 798 79.3807 798 80.4853V92.5735C798 93.6781 797.105 94.5735 796 94.5735C794.895 94.5735 794 93.6781 794 92.5735V80.4853C794 79.3807 794.895 78.4853 796 78.4853ZM232 102.662C233.105 102.662 234 103.557 234 104.662V116.75C234 117.854 233.105 118.75 232 118.75C230.895 118.75 230 117.854 230 116.75V104.662C230 103.557 230.895 102.662 232 102.662ZM796 102.662C797.105 102.662 798 103.557 798 104.662V116.75C798 117.855 797.105 118.75 796 118.75C794.895 118.75 794 117.855 794 116.75V104.662C794 103.557 794.895 102.662 796 102.662ZM232 126.838C233.105 126.838 234 127.733 234 128.838V140.926C234 142.031 233.105 142.926 232 142.926C230.895 142.926 230 142.031 230 140.926V128.838C230 127.733 230.895 126.838 232 126.838ZM796 126.838C797.105 126.838 798 127.734 798 128.838V140.926C798 142.031 797.105 142.926 796 142.926C794.895 142.926 794 142.031 794 140.926V128.838C794 127.734 794.895 126.838 796 126.838ZM232 151.015C233.105 151.015 234 151.91 234 153.015V165.103C234 166.207 233.105 167.103 232 167.103C230.895 167.103 230 166.207 230 165.103V153.015C230 151.91 230.895 151.015 232 151.015ZM796 151.015C797.105 151.015 798 151.91 798 153.015V165.103C798 166.208 797.105 167.103 796 167.103C794.895 167.103 794 166.208 794 165.103V153.015C794 151.91 794.895 151.015 796 151.015ZM232 175.191C233.105 175.191 234 176.086 234 177.191V189.279C234 190.384 233.105 191.279 232 191.279C230.895 191.279 230 190.384 230 189.279V177.191C230 176.086 230.895 175.191 232 175.191ZM796 175.191C797.105 175.191 798 176.087 798 177.191V189.279C798 190.384 797.105 191.279 796 191.279C794.895 191.279 794 190.384 794 189.279V177.191C794 176.087 794.895 175.191 796 175.191ZM232 199.368C233.105 199.368 234 200.263 234 201.368V213.456C234 214.56 233.105 215.456 232 215.456C230.895 215.456 230 214.56 230 213.456V201.368C230 200.263 230.895 199.368 232 199.368ZM796 199.368C797.105 199.368 798 200.263 798 201.368V213.456C798 214.56 797.105 215.456 796 215.456C794.895 215.456 794 214.56 794 213.456V201.368C794 200.263 794.895 199.368 796 199.368ZM232 223.544C233.105 223.544 234 224.44 234 225.544V237.632C234 238.737 233.105 239.632 232 239.632C230.895 239.632 230 238.737 230 237.632V225.544C230 224.44 230.895 223.544 232 223.544ZM796 223.544C797.105 223.544 798 224.44 798 225.544V237.632C798 238.737 797.105 239.632 796 239.632C794.895 239.632 794 238.737 794 237.632V225.544C794 224.44 794.895 223.544 796 223.544ZM232 247.721C233.105 247.721 234 248.616 234 249.721V261.809C234 262.913 233.105 263.809 232 263.809C230.895 263.809 230 262.913 230 261.809V249.721C230 248.616 230.895 247.721 232 247.721ZM796 247.721C797.105 247.721 798 248.616 798 249.721V261.809C798 262.913 797.105 263.809 796 263.809C794.895 263.809 794 262.913 794 261.809V249.721C794 248.616 794.895 247.721 796 247.721ZM796 271.897C797.105 271.897 798 272.793 798 273.897V285.985C798 287.09 797.105 287.985 796 287.985C794.895 287.985 794 287.09 794 285.985V273.897C794 272.793 794.895 271.897 796 271.897ZM232 271.897C233.105 271.897 234 272.793 234 273.897V285.985C234 287.09 233.105 287.985 232 287.985C230.895 287.985 230 287.09 230 285.985V273.897C230 272.793 230.895 271.897 232 271.897ZM796 296.074C797.105 296.074 798 296.969 798 298.074V310.162C798 311.266 797.105 312.162 796 312.162C794.895 312.162 794 311.266 794 310.162V298.074C794 296.969 794.895 296.074 796 296.074ZM232 296.074C233.105 296.074 234 296.969 234 298.074V310.162C234 311.266 233.105 312.162 232 312.162C230.895 312.162 230 311.266 230 310.162V298.074C230 296.969 230.895 296.074 232 296.074ZM796 320.25C797.105 320.25 798 321.145 798 322.25V334.338C798 335.443 797.105 336.338 796 336.338C794.895 336.338 794 335.443 794 334.338V322.25C794 321.145 794.895 320.25 796 320.25ZM232 320.25C233.105 320.25 234 321.146 234 322.25V334.338C234 335.443 233.105 336.338 232 336.338C230.895 336.338 230 335.443 230 334.338V322.25C230 321.146 230.895 320.25 232 320.25ZM796 344.426C797.105 344.426 798 345.322 798 346.426V358.515C798 359.619 797.105 360.515 796 360.515C794.895 360.515 794 359.619 794 358.515V346.426C794 345.322 794.895 344.426 796 344.426ZM232 344.427C233.105 344.427 234 345.322 234 346.427V358.515C234 359.619 233.105 360.515 232 360.515C230.895 360.515 230 359.619 230 358.515V346.427C230 345.322 230.895 344.427 232 344.427ZM796 368.603C797.105 368.603 798 369.498 798 370.603V382.691C798 383.796 797.105 384.691 796 384.691C794.895 384.691 794 383.796 794 382.691V370.603C794 369.498 794.895 368.603 796 368.603ZM232 368.603C233.105 368.603 234 369.498 234 370.603V382.691C234 383.796 233.105 384.691 232 384.691C230.895 384.691 230 383.796 230 382.691V370.603C230 369.498 230.895 368.603 232 368.603ZM796 392.779C797.105 392.779 798 393.675 798 394.779V406.868C798 407.972 797.105 408.868 796 408.868C794.895 408.868 794 407.972 794 406.868V394.779C794 393.675 794.895 392.779 796 392.779ZM232 392.78C233.105 392.78 234 393.675 234 394.78V406.868C234 407.972 233.105 408.868 232 408.868C230.895 408.868 230 407.972 230 406.868V394.78C230 393.675 230.895 392.78 232 392.78ZM796 416.956C797.105 416.956 798 417.851 798 418.956V431.044C798 432.149 797.105 433.044 796 433.044C794.895 433.044 794 432.149 794 431.044V418.956C794 417.851 794.895 416.956 796 416.956ZM232 416.956C233.105 416.956 234 417.851 234 418.956V431.044C234 432.149 233.105 433.044 232 433.044C230.895 433.044 230 432.149 230 431.044V418.956C230 417.851 230.895 416.956 232 416.956ZM796 441.132C797.105 441.132 798 442.028 798 443.132V455.22C798 456.325 797.105 457.22 796 457.22C794.895 457.22 794 456.325 794 455.22V443.132C794 442.028 794.895 441.132 796 441.132ZM232 441.132C233.105 441.132 234 442.028 234 443.132V455.221C234 456.325 233.105 457.221 232 457.221C230.895 457.221 230 456.325 230 455.221V443.132C230 442.028 230.895 441.132 232 441.132ZM796 465.309C797.105 465.309 798 466.204 798 467.309V479.397C798 480.502 797.105 481.397 796 481.397C794.895 481.397 794 480.502 794 479.397V467.309C794 466.204 794.895 465.309 796 465.309ZM232 465.309C233.105 465.309 234 466.204 234 467.309V479.397C234 480.502 233.105 481.397 232 481.397C230.895 481.397 230 480.502 230 479.397V467.309C230 466.204 230.895 465.309 232 465.309ZM796 489.485C797.105 489.485 798 490.381 798 491.485V503.573C798 504.678 797.105 505.573 796 505.573C794.895 505.573 794 504.678 794 503.573V491.485C794 490.381 794.895 489.485 796 489.485ZM232 489.485C233.105 489.485 234 490.381 234 491.485V503.574C234 504.678 233.105 505.574 232 505.574C230.895 505.574 230 504.678 230 503.574V491.485C230 490.381 230.895 489.485 232 489.485ZM796 513.662C797.105 513.662 798 514.557 798 515.662V527.75C798 528.854 797.105 529.75 796 529.75C794.895 529.75 794 528.854 794 527.75V515.662C794 514.557 794.895 513.662 796 513.662ZM232 513.662C233.105 513.662 234 514.557 234 515.662V527.75C234 528.855 233.105 529.75 232 529.75C230.895 529.75 230 528.855 230 527.75V515.662C230 514.557 230.895 513.662 232 513.662ZM796 537.838C797.105 537.838 798 538.734 798 539.838V551.926C798 553.031 797.105 553.926 796 553.926C794.895 553.926 794 553.031 794 551.926V539.838C794 538.734 794.895 537.838 796 537.838ZM232 537.838C233.105 537.838 234 538.734 234 539.838V551.926C234 553.031 233.105 553.926 232 553.926C230.895 553.926 230 553.031 230 551.926V539.838C230 538.734 230.895 537.838 232 537.838ZM232 562.015C233.105 562.015 234 562.91 234 564.015V576.103C234 577.207 233.105 578.103 232 578.103C230.895 578.103 230 577.207 230 576.103V564.015C230 562.91 230.895 562.015 232 562.015ZM796 562.015C797.105 562.015 798 562.91 798 564.015V576.103C798 577.207 797.105 578.103 796 578.103C794.895 578.103 794 577.207 794 576.103V564.015C794 562.91 794.895 562.015 796 562.015ZM232 586.191C233.105 586.191 234 587.087 234 588.191V600.279C234 601.384 233.105 602.279 232 602.279C230.895 602.279 230 601.384 230 600.279V588.191C230 587.087 230.895 586.191 232 586.191ZM796 586.191C797.105 586.191 798 587.087 798 588.191V600.279C798 601.384 797.105 602.279 796 602.279C794.895 602.279 794 601.384 794 600.279V588.191C794 587.087 794.895 586.191 796 586.191ZM232 610.368C233.105 610.368 234 611.263 234 612.368V624.456C234 625.56 233.105 626.456 232 626.456C230.895 626.456 230 625.56 230 624.456V612.368C230 611.263 230.895 610.368 232 610.368ZM232 634.544C233.105 634.544 234 635.44 234 636.544V648.632C234 649.737 233.105 650.632 232 650.632C230.895 650.632 230 649.737 230 648.632V636.544C230 635.44 230.895 634.544 232 634.544ZM232 658.721C233.105 658.721 234 659.616 234 660.721V672.809C234 673.913 233.105 674.809 232 674.809C230.895 674.809 230 673.913 230 672.809V660.721C230 659.616 230.895 658.721 232 658.721ZM232 682.897C233.105 682.897 234 683.792 234 684.897V694H230V684.897C230 683.792 230.895 682.897 232 682.897ZM232 795.691C233 795.691 233.828 794.958 233.976 794H230.024C230.172 794.958 231 795.691 232 795.691ZM794 710V721.162C794 722.267 794.895 723.162 796 723.162C797.105 723.162 798 722.267 798 721.162V710H794ZM796 731.25C797.105 731.25 798 732.146 798 733.25V745.339C798 746.443 797.105 747.339 796 747.339C794.895 747.339 794 746.443 794 745.339V733.25C794 732.146 794.895 731.25 796 731.25ZM796 755.427C797.105 755.427 798 756.322 798 757.427V769.515C798 770.62 797.105 771.515 796 771.515C794.895 771.515 794 770.62 794 769.515V757.427C794 756.322 794.895 755.427 796 755.427ZM796 779.603C797.105 779.603 798 780.499 798 781.603V793.692C798 794.796 797.105 795.692 796 795.692C794.895 795.692 794 794.796 794 793.692V781.603C794 780.499 794.895 779.603 796 779.603ZM232 803.779C233.105 803.779 234 804.675 234 805.779V817.868C234 818.972 233.105 819.868 232 819.868C230.895 819.868 230 818.972 230 817.868V805.779C230 804.675 230.895 803.779 232 803.779ZM796 803.78C797.105 803.78 798 804.675 798 805.78V817.868C798 818.973 797.105 819.868 796 819.868C794.895 819.868 794 818.973 794 817.868V805.78C794 804.675 794.895 803.78 796 803.78ZM232 827.956C233.105 827.956 234 828.851 234 829.956V836C234 837.36 234.27 838.651 234.758 839.827C235.181 840.848 234.697 842.018 233.677 842.441C232.656 842.864 231.486 842.38 231.063 841.36C230.377 839.706 230 837.895 230 836V829.956C230 828.851 230.895 827.956 232 827.956ZM796 827.956C797.105 827.956 798 828.852 798 829.956V836C798 837.895 797.623 839.706 796.937 841.36C796.514 842.38 795.344 842.864 794.323 842.441C793.303 842.018 792.819 840.848 793.242 839.827C793.73 838.651 794 837.36 794 836V829.956C794 828.852 794.895 827.956 796 827.956ZM237.559 846.323C237.982 845.303 239.152 844.819 240.173 845.242C241.349 845.73 242.64 846 244 846H249.869C250.974 846 251.869 846.895 251.869 848C251.869 849.105 250.974 850 249.869 850H244C242.105 850 240.294 849.623 238.64 848.937C237.62 848.514 237.136 847.344 237.559 846.323ZM790.441 846.323C790.864 847.344 790.38 848.514 789.36 848.937C787.706 849.623 785.895 850 784 850H778.13C777.026 850 776.13 849.105 776.13 848C776.13 846.895 777.026 846 778.13 846H784C785.36 846 786.651 845.73 787.827 845.242C788.848 844.819 790.018 845.303 790.441 846.323ZM259.609 848C259.609 846.895 260.504 846 261.609 846H273.348C274.452 846 275.348 846.895 275.348 848C275.348 849.105 274.452 850 273.348 850H261.609C260.504 850 259.609 849.105 259.609 848ZM283.087 848C283.087 846.895 283.982 846 285.087 846H296.826C297.931 846 298.826 846.895 298.826 848C298.826 849.105 297.931 850 296.826 850H285.087C283.982 850 283.087 849.105 283.087 848ZM306.565 848C306.565 846.895 307.461 846 308.565 846H320.304C321.409 846 322.304 846.895 322.304 848C322.304 849.105 321.409 850 320.304 850H308.565C307.461 850 306.565 849.105 306.565 848ZM330.043 848C330.043 846.895 330.939 846 332.043 846H343.782C344.887 846 345.782 846.895 345.782 848C345.782 849.105 344.887 850 343.782 850H332.043C330.939 850 330.043 849.105 330.043 848ZM353.522 848C353.522 846.895 354.417 846 355.522 846H367.261C368.365 846 369.261 846.895 369.261 848C369.261 849.105 368.365 850 367.261 850H355.522C354.417 850 353.522 849.105 353.522 848ZM377 848C377 846.895 377.895 846 379 846H390.739C391.844 846 392.739 846.895 392.739 848C392.739 849.105 391.844 850 390.739 850H379C377.895 850 377 849.105 377 848ZM400.478 848C400.478 846.895 401.374 846 402.478 846H414.217C415.322 846 416.217 846.895 416.217 848C416.217 849.105 415.322 850 414.217 850H402.478C401.374 850 400.478 849.105 400.478 848ZM423.956 848C423.956 846.895 424.852 846 425.956 846H437.696C438.8 846 439.696 846.895 439.696 848C439.696 849.105 438.8 850 437.696 850H425.956C424.852 850 423.956 849.105 423.956 848ZM447.435 848C447.435 846.895 448.33 846 449.435 846H461.174C462.278 846 463.174 846.895 463.174 848C463.174 849.105 462.278 850 461.174 850H449.435C448.33 850 447.435 849.105 447.435 848ZM470.913 848C470.913 846.895 471.808 846 472.913 846H484.652C485.757 846 486.652 846.895 486.652 848C486.652 849.105 485.757 850 484.652 850H472.913C471.808 850 470.913 849.105 470.913 848ZM494.391 848C494.391 846.895 495.287 846 496.391 846H508.13C509.235 846 510.13 846.895 510.13 848C510.13 849.105 509.235 850 508.13 850H496.391C495.287 850 494.391 849.105 494.391 848ZM517.87 848C517.87 846.895 518.765 846 519.87 846H531.609C532.713 846 533.609 846.895 533.609 848C533.609 849.105 532.713 850 531.609 850H519.87C518.765 850 517.87 849.105 517.87 848ZM541.348 848C541.348 846.895 542.243 846 543.348 846H555.087C556.191 846 557.087 846.895 557.087 848C557.087 849.105 556.191 850 555.087 850H543.348C542.243 850 541.348 849.105 541.348 848ZM564.826 848C564.826 846.895 565.721 846 566.826 846H578.565C579.67 846 580.565 846.895 580.565 848C580.565 849.105 579.67 850 578.565 850H566.826C565.721 850 564.826 849.105 564.826 848ZM588.304 848C588.304 846.895 589.2 846 590.304 846H602.043C603.148 846 604.043 846.895 604.043 848C604.043 849.105 603.148 850 602.043 850H590.304C589.2 850 588.304 849.105 588.304 848ZM611.783 848C611.783 846.895 612.678 846 613.783 846H625.522C626.626 846 627.522 846.895 627.522 848C627.522 849.105 626.626 850 625.522 850H613.783C612.678 850 611.783 849.105 611.783 848ZM635.261 848C635.261 846.895 636.156 846 637.261 846H649C650.105 846 651 846.895 651 848C651 849.105 650.105 850 649 850H637.261C636.156 850 635.261 849.105 635.261 848ZM658.739 848C658.739 846.895 659.635 846 660.739 846H672.478C673.583 846 674.478 846.895 674.478 848C674.478 849.105 673.583 850 672.478 850H660.739C659.635 850 658.739 849.105 658.739 848ZM682.217 848C682.217 846.895 683.113 846 684.217 846H695.957C697.061 846 697.957 846.895 697.957 848C697.957 849.105 697.061 850 695.957 850H684.217C683.113 850 682.217 849.105 682.217 848ZM705.696 848C705.696 846.895 706.591 846 707.696 846H719.435C720.539 846 721.435 846.895 721.435 848C721.435 849.105 720.539 850 719.435 850H707.696C706.591 850 705.696 849.105 705.696 848ZM729.174 848C729.174 846.895 730.069 846 731.174 846H742.913C744.018 846 744.913 846.895 744.913 848C744.913 849.105 744.018 850 742.913 850H731.174C730.069 850 729.174 849.105 729.174 848ZM752.652 848C752.652 846.895 753.548 846 754.652 846H766.391C767.496 846 768.391 846.895 768.391 848C768.391 849.105 767.496 850 766.391 850H754.652C753.548 850 752.652 849.105 752.652 848Z" fill="white"/>
</svg>
