<svg width="1204" height="634" viewBox="0 0 1204 634" fill="none" xmlns="http://www.w3.org/2000/svg">
<rect x="2" y="2" width="1200" height="630" rx="12" stroke="white" stroke-width="4" stroke-linecap="round" stroke-dasharray="12 12"/>
<path d="M494.568 305L485.023 270.091H489.318L496.614 298.523H496.955L504.386 270.091H509.159L516.591 298.523H516.932L524.227 270.091H528.523L518.977 305H514.614L506.909 277.182H506.636L498.932 305H494.568ZM533.739 300.534C532.898 300.534 532.176 300.233 531.574 299.631C530.972 299.028 530.67 298.307 530.67 297.466C530.67 296.625 530.972 295.903 531.574 295.301C532.176 294.699 532.898 294.398 533.739 294.398C534.58 294.398 535.301 294.699 535.903 295.301C536.506 295.903 536.807 296.625 536.807 297.466C536.807 298.023 536.665 298.534 536.381 299C536.108 299.466 535.739 299.841 535.273 300.125C534.818 300.398 534.307 300.534 533.739 300.534ZM533.739 282.875C532.898 282.875 532.176 282.574 531.574 281.972C530.972 281.369 530.67 280.648 530.67 279.807C530.67 278.966 530.972 278.244 531.574 277.642C532.176 277.04 532.898 276.739 533.739 276.739C534.58 276.739 535.301 277.04 535.903 277.642C536.506 278.244 536.807 278.966 536.807 279.807C536.807 280.364 536.665 280.875 536.381 281.341C536.108 281.807 535.739 282.182 535.273 282.466C534.818 282.739 534.307 282.875 533.739 282.875ZM569.73 270.091V305H565.503V274.523H565.298L556.776 280.182V275.886L565.503 270.091H569.73ZM579.77 305V301.932L591.293 289.318C592.645 287.841 593.759 286.557 594.634 285.466C595.509 284.364 596.156 283.33 596.577 282.364C597.009 281.386 597.224 280.364 597.224 279.295C597.224 278.068 596.929 277.006 596.338 276.108C595.759 275.21 594.963 274.517 593.952 274.028C592.94 273.54 591.804 273.295 590.543 273.295C589.202 273.295 588.031 273.574 587.031 274.131C586.043 274.676 585.276 275.443 584.73 276.432C584.196 277.42 583.929 278.58 583.929 279.909H579.906C579.906 277.864 580.378 276.068 581.321 274.523C582.264 272.977 583.548 271.773 585.173 270.909C586.81 270.045 588.645 269.614 590.679 269.614C592.724 269.614 594.537 270.045 596.116 270.909C597.696 271.773 598.935 272.937 599.832 274.403C600.73 275.869 601.179 277.5 601.179 279.295C601.179 280.58 600.946 281.835 600.48 283.062C600.026 284.278 599.23 285.636 598.094 287.136C596.969 288.625 595.406 290.443 593.406 292.591L585.565 300.977V301.25H601.793V305H579.77ZM620.219 305.477C617.651 305.477 615.463 304.778 613.656 303.381C611.849 301.972 610.469 299.932 609.514 297.261C608.56 294.58 608.082 291.341 608.082 287.545C608.082 283.773 608.56 280.551 609.514 277.881C610.48 275.199 611.866 273.153 613.673 271.744C615.491 270.324 617.673 269.614 620.219 269.614C622.764 269.614 624.94 270.324 626.747 271.744C628.565 273.153 629.952 275.199 630.906 277.881C631.872 280.551 632.355 283.773 632.355 287.545C632.355 291.341 631.878 294.58 630.923 297.261C629.969 299.932 628.588 301.972 626.781 303.381C624.974 304.778 622.787 305.477 620.219 305.477ZM620.219 301.727C622.764 301.727 624.741 300.5 626.151 298.045C627.56 295.591 628.264 292.091 628.264 287.545C628.264 284.523 627.94 281.949 627.293 279.824C626.656 277.699 625.736 276.08 624.531 274.966C623.338 273.852 621.901 273.295 620.219 273.295C617.696 273.295 615.724 274.54 614.304 277.028C612.884 279.506 612.173 283.011 612.173 287.545C612.173 290.568 612.491 293.136 613.128 295.25C613.764 297.364 614.679 298.972 615.872 300.074C617.077 301.176 618.526 301.727 620.219 301.727ZM650.219 305.477C647.651 305.477 645.463 304.778 643.656 303.381C641.849 301.972 640.469 299.932 639.514 297.261C638.56 294.58 638.082 291.341 638.082 287.545C638.082 283.773 638.56 280.551 639.514 277.881C640.48 275.199 641.866 273.153 643.673 271.744C645.491 270.324 647.673 269.614 650.219 269.614C652.764 269.614 654.94 270.324 656.747 271.744C658.565 273.153 659.952 275.199 660.906 277.881C661.872 280.551 662.355 283.773 662.355 287.545C662.355 291.341 661.878 294.58 660.923 297.261C659.969 299.932 658.588 301.972 656.781 303.381C654.974 304.778 652.787 305.477 650.219 305.477ZM650.219 301.727C652.764 301.727 654.741 300.5 656.151 298.045C657.56 295.591 658.264 292.091 658.264 287.545C658.264 284.523 657.94 281.949 657.293 279.824C656.656 277.699 655.736 276.08 654.531 274.966C653.338 273.852 651.901 273.295 650.219 273.295C647.696 273.295 645.724 274.54 644.304 277.028C642.884 279.506 642.173 283.011 642.173 287.545C642.173 290.568 642.491 293.136 643.128 295.25C643.764 297.364 644.679 298.972 645.872 300.074C647.077 301.176 648.526 301.727 650.219 301.727ZM668.901 314.818V278.818H672.787V282.977H673.264C673.56 282.523 673.969 281.943 674.491 281.239C675.026 280.523 675.787 279.886 676.776 279.33C677.776 278.761 679.128 278.477 680.832 278.477C683.037 278.477 684.98 279.028 686.662 280.131C688.344 281.233 689.656 282.795 690.599 284.818C691.543 286.841 692.014 289.227 692.014 291.977C692.014 294.75 691.543 297.153 690.599 299.188C689.656 301.21 688.349 302.778 686.679 303.892C685.009 304.994 683.082 305.545 680.901 305.545C679.219 305.545 677.872 305.267 676.861 304.71C675.849 304.142 675.071 303.5 674.526 302.784C673.98 302.057 673.56 301.455 673.264 300.977H672.923V314.818H668.901ZM672.855 291.909C672.855 293.886 673.145 295.631 673.724 297.142C674.304 298.642 675.151 299.818 676.264 300.67C677.378 301.511 678.741 301.932 680.355 301.932C682.037 301.932 683.44 301.489 684.565 300.602C685.702 299.705 686.554 298.5 687.122 296.989C687.702 295.466 687.991 293.773 687.991 291.909C687.991 290.068 687.707 288.409 687.139 286.932C686.582 285.443 685.736 284.267 684.599 283.403C683.474 282.528 682.06 282.091 680.355 282.091C678.719 282.091 677.344 282.506 676.23 283.335C675.116 284.153 674.276 285.301 673.707 286.778C673.139 288.244 672.855 289.955 672.855 291.909ZM700.072 278.818L706.345 289.523L712.618 278.818H717.254L708.8 291.909L717.254 305H712.618L706.345 294.841L700.072 305H695.436L703.754 291.909L695.436 278.818H700.072ZM488.227 363V328.091H492.455V343.636H511.068V328.091H515.295V363H511.068V347.386H492.455V363H488.227ZM526.145 358.534C525.304 358.534 524.582 358.233 523.98 357.631C523.378 357.028 523.077 356.307 523.077 355.466C523.077 354.625 523.378 353.903 523.98 353.301C524.582 352.699 525.304 352.398 526.145 352.398C526.986 352.398 527.707 352.699 528.31 353.301C528.912 353.903 529.213 354.625 529.213 355.466C529.213 356.023 529.071 356.534 528.787 357C528.514 357.466 528.145 357.841 527.679 358.125C527.224 358.398 526.713 358.534 526.145 358.534ZM526.145 340.875C525.304 340.875 524.582 340.574 523.98 339.972C523.378 339.369 523.077 338.648 523.077 337.807C523.077 336.966 523.378 336.244 523.98 335.642C524.582 335.04 525.304 334.739 526.145 334.739C526.986 334.739 527.707 335.04 528.31 335.642C528.912 336.244 529.213 336.966 529.213 337.807C529.213 338.364 529.071 338.875 528.787 339.341C528.514 339.807 528.145 340.182 527.679 340.466C527.224 340.739 526.713 340.875 526.145 340.875ZM561.455 363.477C560.023 363.455 558.591 363.182 557.159 362.659C555.727 362.136 554.42 361.256 553.239 360.017C552.057 358.767 551.108 357.08 550.392 354.955C549.676 352.818 549.318 350.136 549.318 346.909C549.318 343.818 549.608 341.08 550.188 338.693C550.767 336.295 551.608 334.278 552.71 332.642C553.813 330.994 555.142 329.744 556.699 328.892C558.267 328.04 560.034 327.614 562 327.614C563.955 327.614 565.693 328.006 567.216 328.79C568.75 329.562 570 330.642 570.966 332.028C571.932 333.415 572.557 335.011 572.841 336.818H568.682C568.295 335.25 567.545 333.949 566.432 332.915C565.318 331.881 563.841 331.364 562 331.364C559.295 331.364 557.165 332.54 555.608 334.892C554.063 337.244 553.284 340.545 553.273 344.795H553.545C554.182 343.83 554.938 343.006 555.812 342.324C556.699 341.631 557.676 341.097 558.744 340.722C559.813 340.347 560.943 340.159 562.136 340.159C564.136 340.159 565.966 340.659 567.625 341.659C569.284 342.648 570.614 344.017 571.614 345.767C572.614 347.506 573.114 349.5 573.114 351.75C573.114 353.909 572.631 355.886 571.665 357.682C570.699 359.466 569.341 360.886 567.591 361.943C565.852 362.989 563.807 363.5 561.455 363.477ZM561.455 359.727C562.886 359.727 564.17 359.369 565.307 358.653C566.455 357.937 567.358 356.977 568.017 355.773C568.688 354.568 569.023 353.227 569.023 351.75C569.023 350.307 568.699 348.994 568.051 347.812C567.415 346.619 566.534 345.67 565.409 344.966C564.295 344.261 563.023 343.909 561.591 343.909C560.511 343.909 559.506 344.125 558.574 344.557C557.642 344.977 556.824 345.557 556.119 346.295C555.426 347.034 554.881 347.881 554.483 348.835C554.085 349.778 553.886 350.773 553.886 351.818C553.886 353.205 554.21 354.5 554.858 355.705C555.517 356.909 556.415 357.881 557.551 358.619C558.699 359.358 560 359.727 561.455 359.727ZM591.612 363.477C589.362 363.477 587.357 363.091 585.595 362.318C583.845 361.545 582.453 360.472 581.419 359.097C580.396 357.71 579.839 356.102 579.749 354.273H584.044C584.135 355.398 584.521 356.369 585.203 357.188C585.885 357.994 586.777 358.619 587.879 359.062C588.982 359.506 590.203 359.727 591.544 359.727C593.044 359.727 594.374 359.466 595.533 358.943C596.692 358.42 597.601 357.693 598.26 356.761C598.919 355.83 599.249 354.75 599.249 353.523C599.249 352.239 598.93 351.108 598.294 350.131C597.658 349.142 596.726 348.369 595.499 347.812C594.271 347.256 592.771 346.977 590.999 346.977H588.203V343.227H590.999C592.385 343.227 593.601 342.977 594.646 342.477C595.703 341.977 596.527 341.273 597.118 340.364C597.72 339.455 598.021 338.386 598.021 337.159C598.021 335.977 597.76 334.949 597.237 334.074C596.714 333.199 595.976 332.517 595.021 332.028C594.078 331.54 592.964 331.295 591.68 331.295C590.476 331.295 589.339 331.517 588.271 331.96C587.214 332.392 586.351 333.023 585.68 333.852C585.01 334.67 584.646 335.659 584.589 336.818H580.499C580.567 334.989 581.118 333.386 582.152 332.011C583.186 330.625 584.538 329.545 586.209 328.773C587.891 328 589.737 327.614 591.749 327.614C593.908 327.614 595.76 328.051 597.305 328.926C598.851 329.79 600.038 330.932 600.868 332.352C601.697 333.773 602.112 335.307 602.112 336.955C602.112 338.92 601.595 340.597 600.561 341.983C599.538 343.369 598.146 344.33 596.385 344.864V345.136C598.589 345.5 600.311 346.437 601.55 347.949C602.788 349.449 603.408 351.307 603.408 353.523C603.408 355.42 602.891 357.125 601.857 358.636C600.834 360.136 599.436 361.318 597.663 362.182C595.891 363.045 593.874 363.477 591.612 363.477ZM621.766 363.477C619.197 363.477 617.01 362.778 615.203 361.381C613.396 359.972 612.016 357.932 611.061 355.261C610.107 352.58 609.629 349.341 609.629 345.545C609.629 341.773 610.107 338.551 611.061 335.881C612.027 333.199 613.413 331.153 615.22 329.744C617.038 328.324 619.22 327.614 621.766 327.614C624.311 327.614 626.487 328.324 628.294 329.744C630.112 331.153 631.499 333.199 632.453 335.881C633.419 338.551 633.902 341.773 633.902 345.545C633.902 349.341 633.425 352.58 632.47 355.261C631.516 357.932 630.135 359.972 628.328 361.381C626.521 362.778 624.334 363.477 621.766 363.477ZM621.766 359.727C624.311 359.727 626.288 358.5 627.697 356.045C629.107 353.591 629.811 350.091 629.811 345.545C629.811 342.523 629.487 339.949 628.839 337.824C628.203 335.699 627.283 334.08 626.078 332.966C624.885 331.852 623.447 331.295 621.766 331.295C619.243 331.295 617.271 332.54 615.851 335.028C614.43 337.506 613.72 341.011 613.72 345.545C613.72 348.568 614.038 351.136 614.675 353.25C615.311 355.364 616.226 356.972 617.419 358.074C618.624 359.176 620.072 359.727 621.766 359.727ZM640.447 372.818V336.818H644.334V340.977H644.811C645.107 340.523 645.516 339.943 646.038 339.239C646.572 338.523 647.334 337.886 648.322 337.33C649.322 336.761 650.675 336.477 652.379 336.477C654.584 336.477 656.527 337.028 658.209 338.131C659.891 339.233 661.203 340.795 662.146 342.818C663.089 344.841 663.561 347.227 663.561 349.977C663.561 352.75 663.089 355.153 662.146 357.188C661.203 359.21 659.896 360.778 658.226 361.892C656.555 362.994 654.629 363.545 652.447 363.545C650.766 363.545 649.419 363.267 648.408 362.71C647.396 362.142 646.618 361.5 646.072 360.784C645.527 360.057 645.107 359.455 644.811 358.977H644.47V372.818H640.447ZM644.402 349.909C644.402 351.886 644.692 353.631 645.271 355.142C645.851 356.642 646.697 357.818 647.811 358.67C648.925 359.511 650.288 359.932 651.902 359.932C653.584 359.932 654.987 359.489 656.112 358.602C657.249 357.705 658.101 356.5 658.669 354.989C659.249 353.466 659.538 351.773 659.538 349.909C659.538 348.068 659.254 346.409 658.686 344.932C658.129 343.443 657.283 342.267 656.146 341.403C655.021 340.528 653.607 340.091 651.902 340.091C650.266 340.091 648.891 340.506 647.777 341.335C646.663 342.153 645.822 343.301 645.254 344.778C644.686 346.244 644.402 347.955 644.402 349.909ZM671.619 336.818L677.892 347.523L684.165 336.818H688.801L680.347 349.909L688.801 363H684.165L677.892 352.841L671.619 363H666.983L675.301 349.909L666.983 336.818H671.619Z" fill="white"/>
</svg>
