<svg width="564" height="904" viewBox="0 0 564 904" fill="none" xmlns="http://www.w3.org/2000/svg">
<rect x="2" y="2" width="560" height="900" rx="12" stroke="white" stroke-width="4" stroke-linecap="round" stroke-dasharray="12 12"/>
<path d="M185.568 440L176.023 405.091H180.318L187.614 433.523H187.955L195.386 405.091H200.159L207.591 433.523H207.932L215.227 405.091H219.523L209.977 440H205.614L197.909 412.182H197.636L189.932 440H185.568ZM224.739 435.534C223.898 435.534 223.176 435.233 222.574 434.631C221.972 434.028 221.67 433.307 221.67 432.466C221.67 431.625 221.972 430.903 222.574 430.301C223.176 429.699 223.898 429.398 224.739 429.398C225.58 429.398 226.301 429.699 226.903 430.301C227.506 430.903 227.807 431.625 227.807 432.466C227.807 433.023 227.665 433.534 227.381 434C227.108 434.466 226.739 434.841 226.273 435.125C225.818 435.398 225.307 435.534 224.739 435.534ZM224.739 417.875C223.898 417.875 223.176 417.574 222.574 416.972C221.972 416.369 221.67 415.648 221.67 414.807C221.67 413.966 221.972 413.244 222.574 412.642C223.176 412.04 223.898 411.739 224.739 411.739C225.58 411.739 226.301 412.04 226.903 412.642C227.506 413.244 227.807 413.966 227.807 414.807C227.807 415.364 227.665 415.875 227.381 416.341C227.108 416.807 226.739 417.182 226.273 417.466C225.818 417.739 225.307 417.875 224.739 417.875ZM259.366 440.477C257.366 440.477 255.565 440.08 253.963 439.284C252.361 438.489 251.077 437.398 250.111 436.011C249.145 434.625 248.616 433.045 248.526 431.273H252.616C252.776 432.852 253.491 434.159 254.764 435.193C256.048 436.216 257.582 436.727 259.366 436.727C260.798 436.727 262.071 436.392 263.185 435.722C264.31 435.051 265.19 434.131 265.827 432.96C266.474 431.778 266.798 430.443 266.798 428.955C266.798 427.432 266.463 426.074 265.793 424.881C265.134 423.676 264.224 422.727 263.065 422.034C261.906 421.341 260.582 420.989 259.094 420.977C258.026 420.966 256.929 421.131 255.804 421.472C254.679 421.801 253.753 422.227 253.026 422.75L249.071 422.273L251.185 405.091H269.321V408.841H254.73L253.503 419.136H253.707C254.423 418.568 255.321 418.097 256.401 417.722C257.48 417.347 258.605 417.159 259.776 417.159C261.912 417.159 263.815 417.67 265.486 418.693C267.168 419.705 268.486 421.091 269.44 422.852C270.406 424.614 270.889 426.625 270.889 428.886C270.889 431.114 270.389 433.102 269.389 434.852C268.401 436.591 267.037 437.966 265.298 438.977C263.56 439.977 261.582 440.477 259.366 440.477ZM289.251 440.477C287.82 440.455 286.388 440.182 284.956 439.659C283.524 439.136 282.217 438.256 281.036 437.017C279.854 435.767 278.905 434.08 278.189 431.955C277.473 429.818 277.115 427.136 277.115 423.909C277.115 420.818 277.405 418.08 277.984 415.693C278.564 413.295 279.405 411.278 280.507 409.642C281.609 407.994 282.939 406.744 284.496 405.892C286.064 405.04 287.831 404.614 289.797 404.614C291.751 404.614 293.49 405.006 295.013 405.79C296.547 406.562 297.797 407.642 298.763 409.028C299.729 410.415 300.354 412.011 300.638 413.818H296.479C296.092 412.25 295.342 410.949 294.229 409.915C293.115 408.881 291.638 408.364 289.797 408.364C287.092 408.364 284.962 409.54 283.405 411.892C281.859 414.244 281.081 417.545 281.07 421.795H281.342C281.979 420.83 282.734 420.006 283.609 419.324C284.496 418.631 285.473 418.097 286.541 417.722C287.609 417.347 288.74 417.159 289.933 417.159C291.933 417.159 293.763 417.659 295.422 418.659C297.081 419.648 298.411 421.017 299.411 422.767C300.411 424.506 300.911 426.5 300.911 428.75C300.911 430.909 300.428 432.886 299.462 434.682C298.496 436.466 297.138 437.886 295.388 438.943C293.649 439.989 291.604 440.5 289.251 440.477ZM289.251 436.727C290.683 436.727 291.967 436.369 293.104 435.653C294.251 434.937 295.155 433.977 295.814 432.773C296.484 431.568 296.82 430.227 296.82 428.75C296.82 427.307 296.496 425.994 295.848 424.812C295.212 423.619 294.331 422.67 293.206 421.966C292.092 421.261 290.82 420.909 289.388 420.909C288.308 420.909 287.303 421.125 286.371 421.557C285.439 421.977 284.621 422.557 283.916 423.295C283.223 424.034 282.678 424.881 282.28 425.835C281.882 426.778 281.683 427.773 281.683 428.818C281.683 430.205 282.007 431.5 282.655 432.705C283.314 433.909 284.212 434.881 285.348 435.619C286.496 436.358 287.797 436.727 289.251 436.727ZM319 440.477C316.432 440.477 314.244 439.778 312.438 438.381C310.631 436.972 309.25 434.932 308.295 432.261C307.341 429.58 306.864 426.341 306.864 422.545C306.864 418.773 307.341 415.551 308.295 412.881C309.261 410.199 310.648 408.153 312.455 406.744C314.273 405.324 316.455 404.614 319 404.614C321.545 404.614 323.722 405.324 325.528 406.744C327.347 408.153 328.733 410.199 329.688 412.881C330.653 415.551 331.136 418.773 331.136 422.545C331.136 426.341 330.659 429.58 329.705 432.261C328.75 434.932 327.369 436.972 325.562 438.381C323.756 439.778 321.568 440.477 319 440.477ZM319 436.727C321.545 436.727 323.523 435.5 324.932 433.045C326.341 430.591 327.045 427.091 327.045 422.545C327.045 419.523 326.722 416.949 326.074 414.824C325.438 412.699 324.517 411.08 323.312 409.966C322.119 408.852 320.682 408.295 319 408.295C316.477 408.295 314.506 409.54 313.085 412.028C311.665 414.506 310.955 418.011 310.955 422.545C310.955 425.568 311.273 428.136 311.909 430.25C312.545 432.364 313.46 433.972 314.653 435.074C315.858 436.176 317.307 436.727 319 436.727ZM337.682 449.818V413.818H341.568V417.977H342.045C342.341 417.523 342.75 416.943 343.273 416.239C343.807 415.523 344.568 414.886 345.557 414.33C346.557 413.761 347.909 413.477 349.614 413.477C351.818 413.477 353.761 414.028 355.443 415.131C357.125 416.233 358.438 417.795 359.381 419.818C360.324 421.841 360.795 424.227 360.795 426.977C360.795 429.75 360.324 432.153 359.381 434.188C358.438 436.21 357.131 437.778 355.46 438.892C353.79 439.994 351.864 440.545 349.682 440.545C348 440.545 346.653 440.267 345.642 439.71C344.631 439.142 343.852 438.5 343.307 437.784C342.761 437.057 342.341 436.455 342.045 435.977H341.705V449.818H337.682ZM341.636 426.909C341.636 428.886 341.926 430.631 342.506 432.142C343.085 433.642 343.932 434.818 345.045 435.67C346.159 436.511 347.523 436.932 349.136 436.932C350.818 436.932 352.222 436.489 353.347 435.602C354.483 434.705 355.335 433.5 355.903 431.989C356.483 430.466 356.773 428.773 356.773 426.909C356.773 425.068 356.489 423.409 355.92 421.932C355.364 420.443 354.517 419.267 353.381 418.403C352.256 417.528 350.841 417.091 349.136 417.091C347.5 417.091 346.125 417.506 345.011 418.335C343.898 419.153 343.057 420.301 342.489 421.778C341.92 423.244 341.636 424.955 341.636 426.909ZM368.854 413.818L375.126 424.523L381.399 413.818H386.036L377.581 426.909L386.036 440H381.399L375.126 429.841L368.854 440H364.217L372.536 426.909L364.217 413.818H368.854ZM179.227 498V463.091H183.455V478.636H202.068V463.091H206.295V498H202.068V482.386H183.455V498H179.227ZM217.145 493.534C216.304 493.534 215.582 493.233 214.98 492.631C214.378 492.028 214.077 491.307 214.077 490.466C214.077 489.625 214.378 488.903 214.98 488.301C215.582 487.699 216.304 487.398 217.145 487.398C217.986 487.398 218.707 487.699 219.31 488.301C219.912 488.903 220.213 489.625 220.213 490.466C220.213 491.023 220.071 491.534 219.787 492C219.514 492.466 219.145 492.841 218.679 493.125C218.224 493.398 217.713 493.534 217.145 493.534ZM217.145 475.875C216.304 475.875 215.582 475.574 214.98 474.972C214.378 474.369 214.077 473.648 214.077 472.807C214.077 471.966 214.378 471.244 214.98 470.642C215.582 470.04 216.304 469.739 217.145 469.739C217.986 469.739 218.707 470.04 219.31 470.642C219.912 471.244 220.213 471.966 220.213 472.807C220.213 473.364 220.071 473.875 219.787 474.341C219.514 474.807 219.145 475.182 218.679 475.466C218.224 475.739 217.713 475.875 217.145 475.875ZM251.977 462.614C253.409 462.625 254.841 462.898 256.273 463.432C257.705 463.966 259.011 464.852 260.193 466.091C261.375 467.318 262.324 468.994 263.04 471.119C263.756 473.244 264.114 475.909 264.114 479.114C264.114 482.216 263.818 484.972 263.227 487.381C262.648 489.778 261.807 491.801 260.705 493.449C259.614 495.097 258.284 496.347 256.716 497.199C255.159 498.051 253.398 498.477 251.432 498.477C249.477 498.477 247.733 498.091 246.199 497.318C244.676 496.534 243.426 495.449 242.449 494.062C241.483 492.665 240.864 491.045 240.591 489.205H244.75C245.125 490.807 245.869 492.131 246.983 493.176C248.108 494.21 249.591 494.727 251.432 494.727C254.125 494.727 256.25 493.551 257.807 491.199C259.375 488.847 260.159 485.523 260.159 481.227H259.886C259.25 482.182 258.494 483.006 257.619 483.699C256.744 484.392 255.773 484.926 254.705 485.301C253.636 485.676 252.5 485.864 251.295 485.864C249.295 485.864 247.46 485.369 245.79 484.381C244.131 483.381 242.801 482.011 241.801 480.273C240.812 478.523 240.318 476.523 240.318 474.273C240.318 472.136 240.795 470.182 241.75 468.409C242.716 466.625 244.068 465.205 245.807 464.148C247.557 463.091 249.614 462.58 251.977 462.614ZM251.977 466.364C250.545 466.364 249.256 466.722 248.108 467.438C246.972 468.142 246.068 469.097 245.398 470.301C244.739 471.494 244.409 472.818 244.409 474.273C244.409 475.727 244.727 477.051 245.364 478.244C246.011 479.426 246.892 480.369 248.006 481.074C249.131 481.767 250.409 482.114 251.841 482.114C252.92 482.114 253.926 481.903 254.858 481.483C255.79 481.051 256.602 480.466 257.295 479.727C258 478.977 258.551 478.131 258.949 477.188C259.347 476.233 259.545 475.239 259.545 474.205C259.545 472.841 259.216 471.562 258.557 470.369C257.909 469.176 257.011 468.21 255.864 467.472C254.727 466.733 253.432 466.364 251.977 466.364ZM282.203 498.477C279.635 498.477 277.447 497.778 275.641 496.381C273.834 494.972 272.453 492.932 271.499 490.261C270.544 487.58 270.067 484.341 270.067 480.545C270.067 476.773 270.544 473.551 271.499 470.881C272.464 468.199 273.851 466.153 275.658 464.744C277.476 463.324 279.658 462.614 282.203 462.614C284.749 462.614 286.925 463.324 288.732 464.744C290.55 466.153 291.936 468.199 292.891 470.881C293.857 473.551 294.339 476.773 294.339 480.545C294.339 484.341 293.862 487.58 292.908 490.261C291.953 492.932 290.572 494.972 288.766 496.381C286.959 497.778 284.771 498.477 282.203 498.477ZM282.203 494.727C284.749 494.727 286.726 493.5 288.135 491.045C289.544 488.591 290.249 485.091 290.249 480.545C290.249 477.523 289.925 474.949 289.277 472.824C288.641 470.699 287.72 469.08 286.516 467.966C285.322 466.852 283.885 466.295 282.203 466.295C279.68 466.295 277.709 467.54 276.288 470.028C274.868 472.506 274.158 476.011 274.158 480.545C274.158 483.568 274.476 486.136 275.112 488.25C275.749 490.364 276.663 491.972 277.857 493.074C279.061 494.176 280.51 494.727 282.203 494.727ZM312.203 498.477C309.635 498.477 307.447 497.778 305.641 496.381C303.834 494.972 302.453 492.932 301.499 490.261C300.544 487.58 300.067 484.341 300.067 480.545C300.067 476.773 300.544 473.551 301.499 470.881C302.464 468.199 303.851 466.153 305.658 464.744C307.476 463.324 309.658 462.614 312.203 462.614C314.749 462.614 316.925 463.324 318.732 464.744C320.55 466.153 321.936 468.199 322.891 470.881C323.857 473.551 324.339 476.773 324.339 480.545C324.339 484.341 323.862 487.58 322.908 490.261C321.953 492.932 320.572 494.972 318.766 496.381C316.959 497.778 314.771 498.477 312.203 498.477ZM312.203 494.727C314.749 494.727 316.726 493.5 318.135 491.045C319.544 488.591 320.249 485.091 320.249 480.545C320.249 477.523 319.925 474.949 319.277 472.824C318.641 470.699 317.72 469.08 316.516 467.966C315.322 466.852 313.885 466.295 312.203 466.295C309.68 466.295 307.709 467.54 306.288 470.028C304.868 472.506 304.158 476.011 304.158 480.545C304.158 483.568 304.476 486.136 305.112 488.25C305.749 490.364 306.663 491.972 307.857 493.074C309.061 494.176 310.51 494.727 312.203 494.727ZM330.885 507.818V471.818H334.771V475.977H335.249C335.544 475.523 335.953 474.943 336.476 474.239C337.01 473.523 337.771 472.886 338.76 472.33C339.76 471.761 341.112 471.477 342.817 471.477C345.021 471.477 346.964 472.028 348.646 473.131C350.328 474.233 351.641 475.795 352.584 477.818C353.527 479.841 353.999 482.227 353.999 484.977C353.999 487.75 353.527 490.153 352.584 492.188C351.641 494.21 350.334 495.778 348.663 496.892C346.993 497.994 345.067 498.545 342.885 498.545C341.203 498.545 339.857 498.267 338.845 497.71C337.834 497.142 337.055 496.5 336.51 495.784C335.964 495.057 335.544 494.455 335.249 493.977H334.908V507.818H330.885ZM334.839 484.909C334.839 486.886 335.129 488.631 335.709 490.142C336.288 491.642 337.135 492.818 338.249 493.67C339.362 494.511 340.726 494.932 342.339 494.932C344.021 494.932 345.425 494.489 346.55 493.602C347.686 492.705 348.538 491.5 349.107 489.989C349.686 488.466 349.976 486.773 349.976 484.909C349.976 483.068 349.692 481.409 349.124 479.932C348.567 478.443 347.72 477.267 346.584 476.403C345.459 475.528 344.044 475.091 342.339 475.091C340.703 475.091 339.328 475.506 338.214 476.335C337.101 477.153 336.26 478.301 335.692 479.778C335.124 481.244 334.839 482.955 334.839 484.909ZM362.057 471.818L368.33 482.523L374.602 471.818H379.239L370.784 484.909L379.239 498H374.602L368.33 487.841L362.057 498H357.42L365.739 484.909L357.42 471.818H362.057Z" fill="white"/>
</svg>
