<svg width="346" height="142" viewBox="0 0 346 142" fill="none" xmlns="http://www.w3.org/2000/svg">
<path fill-rule="evenodd" clip-rule="evenodd" d="M143 42.001H0V38.001H143V42.001Z" fill="#727279"/>
<path fill-rule="evenodd" clip-rule="evenodd" d="M254 29.001H156V25.001H254V29.001Z" fill="#727279"/>
<path fill-rule="evenodd" clip-rule="evenodd" d="M302 54.001H229V50.001H302V54.001Z" fill="#727279"/>
<path fill-rule="evenodd" clip-rule="evenodd" d="M334 10.001H175V6.00098H334V10.001Z" fill="#727279"/>
<path fill-rule="evenodd" clip-rule="evenodd" d="M118 92.001L32 92.001V88.001L118 88.001V92.001Z" fill="#727279"/>
<path fill-rule="evenodd" clip-rule="evenodd" d="M238 84.001L175 84.001V80.001L238 80.001V84.001Z" fill="#727279"/>
<path fill-rule="evenodd" clip-rule="evenodd" d="M175 84.001L143 116.001L140.172 113.173L172.172 81.1729L175 84.001Z" fill="#727279"/>
<path fill-rule="evenodd" clip-rule="evenodd" d="M175 10.001L143 42.001L140.172 39.1729L172.172 7.17285L175 10.001Z" fill="#727279"/>
<path fill-rule="evenodd" clip-rule="evenodd" d="M158 132.001L118 92.001L120.828 89.1729L160.828 129.173L158 132.001Z" fill="#727279"/>
<path fill-rule="evenodd" clip-rule="evenodd" d="M229 54.001L204 29.0013L206.828 26.1729L231.828 51.1729L229 54.001Z" fill="#727279"/>
<path d="M172.172 81.1729C172.922 80.4227 173.939 80.001 175 80.001V84.001L172.172 81.1729Z" fill="#727279"/>
<path d="M120.828 89.1729C120.078 88.4227 119.061 88.001 118 88.001V92.001L120.828 89.1729Z" fill="#727279"/>
<path d="M172.172 7.17285C172.922 6.42271 173.939 6.00098 175 6.00098V10.001L172.172 7.17285Z" fill="#727279"/>
<path d="M346 8.00098C346 12.4193 342.418 16.001 338 16.001C333.582 16.001 330 12.4193 330 8.00098C330 3.5827 333.582 0.000976562 338 0.000976562C342.418 0.000976562 346 3.5827 346 8.00098ZM333.997 8.00098C333.997 10.2118 335.789 12.004 338 12.004C340.211 12.004 342.003 10.2118 342.003 8.00098C342.003 5.79014 340.211 3.99791 338 3.99791C335.789 3.99791 333.997 5.79014 333.997 8.00098Z" fill="#727279"/>
<path d="M171 134.001C171 138.419 167.418 142.001 163 142.001C158.582 142.001 155 138.419 155 134.001C155 129.583 158.582 126.001 163 126.001C167.418 126.001 171 129.583 171 134.001ZM158.997 134.001C158.997 136.212 160.789 138.004 163 138.004C165.211 138.004 167.003 136.212 167.003 134.001C167.003 131.79 165.211 129.998 163 129.998C160.789 129.998 158.997 131.79 158.997 134.001Z" fill="#727279"/>
<path d="M314 52.001C314 56.4193 310.418 60.001 306 60.001C301.582 60.001 298 56.4193 298 52.001C298 47.5827 301.582 44.001 306 44.001C310.418 44.001 314 47.5827 314 52.001ZM301.997 52.001C301.997 54.2118 303.789 56.004 306 56.004C308.211 56.004 310.003 54.2118 310.003 52.001C310.003 49.7901 308.211 47.9979 306 47.9979C303.789 47.9979 301.997 49.7901 301.997 52.001Z" fill="#727279"/>
<path d="M250 82.001C250 86.4193 246.418 90.001 242 90.001C237.582 90.001 234 86.4193 234 82.001C234 77.5827 237.582 74.001 242 74.001C246.418 74.001 250 77.5827 250 82.001ZM237.997 82.001C237.997 84.2118 239.789 86.004 242 86.004C244.211 86.004 246.003 84.2118 246.003 82.001C246.003 79.7901 244.211 77.9979 242 77.9979C239.789 77.9979 237.997 79.7901 237.997 82.001Z" fill="#727279"/>
<path d="M266 27.001C266 31.4193 262.418 35.001 258 35.001C253.582 35.001 250 31.4193 250 27.001C250 22.5827 253.582 19.001 258 19.001C262.418 19.001 266 22.5827 266 27.001ZM253.997 27.001C253.997 29.2118 255.789 31.004 258 31.004C260.211 31.004 262.003 29.2118 262.003 27.001C262.003 24.7901 260.211 22.9979 258 22.9979C255.789 22.9979 253.997 24.7901 253.997 27.001Z" fill="#727279"/>
</svg>
