<svg width="222" height="42" viewBox="0 0 222 42" fill="none" xmlns="http://www.w3.org/2000/svg">
<path fill-rule="evenodd" clip-rule="evenodd" d="M75 0.000244141H0V4.00024H75V0.000244141Z" fill="#727279"/>
<path fill-rule="evenodd" clip-rule="evenodd" d="M162 32.0002H107V36.0002H162V32.0002Z" fill="#727279"/>
<path fill-rule="evenodd" clip-rule="evenodd" d="M210 12.0002H87V16.0002H210V12.0002Z" fill="#727279"/>
<path fill-rule="evenodd" clip-rule="evenodd" d="M107 32.0002L75 0.000244141L72.1719 2.82837L104.172 34.8284L107 32.0002Z" fill="#727279"/>
<path d="M104.172 34.8284C104.922 35.5785 105.939 36.0002 107 36.0002V32.0002L104.172 34.8284Z" fill="#727279"/>
<path d="M222 14.0002C222 9.58197 218.418 6.00024 214 6.00024C209.582 6.00024 206 9.58197 206 14.0002C206 18.4185 209.582 22.0002 214 22.0002C218.418 22.0002 222 18.4185 222 14.0002ZM209.997 14.0002C209.997 11.7894 211.789 9.99718 214 9.99718C216.211 9.99718 218.003 11.7894 218.003 14.0002C218.003 16.2111 216.211 18.0033 214 18.0033C211.789 18.0033 209.997 16.2111 209.997 14.0002Z" fill="#727279"/>
<path d="M174 34.0002C174 29.582 170.418 26.0002 166 26.0002C161.582 26.0002 158 29.582 158 34.0002C158 38.4185 161.582 42.0002 166 42.0002C170.418 42.0002 174 38.4185 174 34.0002ZM161.997 34.0002C161.997 31.7894 163.789 29.9972 166 29.9972C168.211 29.9972 170.003 31.7894 170.003 34.0002C170.003 36.2111 168.211 38.0033 166 38.0033C163.789 38.0033 161.997 36.2111 161.997 34.0002Z" fill="#727279"/>
</svg>
