<svg width="314" height="96" viewBox="0 0 314 96" fill="none" xmlns="http://www.w3.org/2000/svg">
<path fill-rule="evenodd" clip-rule="evenodd" d="M253 20L314 20V16L253 16V20Z" fill="#727279"/>
<path fill-rule="evenodd" clip-rule="evenodd" d="M88 90H183V86H88V90Z" fill="#727279"/>
<path fill-rule="evenodd" clip-rule="evenodd" d="M60 10H96V6H60V10Z" fill="#727279"/>
<path fill-rule="evenodd" clip-rule="evenodd" d="M96 10L144 58.0003L146.828 55.1719L98.8281 7.17188L96 10Z" fill="#727279"/>
<path fill-rule="evenodd" clip-rule="evenodd" d="M12 58H215V54H12V58Z" fill="#727279"/>
<path fill-rule="evenodd" clip-rule="evenodd" d="M183 90L253 20L250.172 17.1719L180.172 87.1719L183 90Z" fill="#727279"/>
<path d="M98.8281 7.17188C98.078 6.42173 97.0609 6 96 6V10L98.8281 7.17188Z" fill="#727279"/>
<path d="M250.172 17.1719C250.922 16.4217 251.939 16 253 16V20L250.172 17.1719Z" fill="#727279"/>
<path d="M0 56C0 60.4183 3.58172 64 8 64C12.4183 64 16 60.4183 16 56C16 51.5817 12.4183 48 8 48C3.58172 48 0 51.5817 0 56ZM12.0031 56C12.0031 58.2108 10.2108 60.0031 8 60.0031C5.78917 60.0031 3.99693 58.2108 3.99693 56C3.99693 53.7892 5.78917 51.9969 8 51.9969C10.2108 51.9969 12.0031 53.7892 12.0031 56Z" fill="#727279"/>
<path d="M48 8C48 12.4183 51.5817 16 56 16C60.4183 16 64 12.4183 64 8C64 3.58172 60.4183 0 56 0C51.5817 0 48 3.58172 48 8ZM60.0031 8C60.0031 10.2108 58.2108 12.0031 56 12.0031C53.7892 12.0031 51.9969 10.2108 51.9969 8C51.9969 5.78917 53.7892 3.99693 56 3.99693C58.2108 3.99693 60.0031 5.78917 60.0031 8Z" fill="#727279"/>
<path d="M76 88C76 92.4183 79.5817 96 84 96C88.4183 96 92 92.4183 92 88C92 83.5817 88.4183 80 84 80C79.5817 80 76 83.5817 76 88ZM88.0031 88C88.0031 90.2108 86.2108 92.0031 84 92.0031C81.7892 92.0031 79.9969 90.2108 79.9969 88C79.9969 85.7892 81.7892 83.9969 84 83.9969C86.2108 83.9969 88.0031 85.7892 88.0031 88Z" fill="#727279"/>
</svg>
