<svg width="20" height="20" viewBox="0 0 20 20" fill="none" xmlns="http://www.w3.org/2000/svg">
<path d="M3.12516 8.14667C3.2185 8.1325 3.31433 8.125 3.41183 8.125H16.5885C16.686 8.125 16.7818 8.1325 16.8752 8.14667M3.12516 8.14667C2.63747 8.22219 2.19921 8.48695 1.90546 8.88351C1.6117 9.28007 1.48614 9.77646 1.556 10.265L2.27016 15.265C2.33395 15.7118 2.55674 16.1206 2.89765 16.4163C3.23855 16.7121 3.67469 16.8749 4.126 16.875H15.8752C16.3265 16.8749 16.7626 16.7121 17.1035 16.4163C17.4444 16.1206 17.6672 15.7118 17.731 15.265L18.4452 10.265C18.515 9.77646 18.3895 9.28007 18.0957 8.88351C17.802 8.48695 17.3629 8.22219 16.8752 8.14667M3.12516 8.14667L3.126 5C3.126 4.50286 3.32343 4.02608 3.67488 3.67447C4.02633 3.32286 4.50303 3.12522 5.00016 3.125H8.23266C8.56407 3.12529 8.8818 3.25718 9.116 3.49167L10.8843 5.25833C11.1185 5.49282 11.4363 5.62471 11.7677 5.625H15.0002C15.4974 5.625 15.9744 5.82254 16.326 6.17417C16.6776 6.52581 16.8752 7.00272 16.8752 7.5V8.14667" stroke="#C2C4C7" stroke-linecap="round" stroke-linejoin="round"/>
</svg>
