<svg width="118" height="72" viewBox="0 0 118 72" fill="none" xmlns="http://www.w3.org/2000/svg">
<path d="M11.504 55C9.42665 55 7.52665 54.4933 5.80398 53.48C4.13198 52.4666 2.78931 51.124 1.77598 49.452C0.762648 47.7293 0.255981 45.8293 0.255981 43.752V11.528C0.255981 9.45063 0.762648 7.57597 1.77598 5.90397C2.78931 4.1813 4.13198 2.8133 5.80398 1.79997C7.52665 0.786634 9.42665 0.279968 11.504 0.279968H54.824V12.136H14.544C13.7333 12.136 13.1 12.3386 12.644 12.744C12.2386 13.1493 12.036 13.7826 12.036 14.644V40.636C12.036 41.4466 12.2386 42.08 12.644 42.536C13.1 42.9413 13.7333 43.144 14.544 43.144H54.824V55H11.504Z" fill="#C2C4C7"/>
<path d="M73.8442 55C71.8175 55 69.9428 54.4933 68.2202 53.48C66.4975 52.4666 65.1295 51.0986 64.1162 49.376C63.1028 47.6533 62.5962 45.7786 62.5962 43.752V38.66H74.3762V43.144H105.384V33.568H73.8442C71.8175 33.568 69.9428 33.0613 68.2202 32.048C66.4975 31.0346 65.1295 29.692 64.1162 28.02C63.1028 26.2973 62.5962 24.3973 62.5962 22.32V11.528C62.5962 9.45063 63.1028 7.57597 64.1162 5.90397C65.1295 4.1813 66.4975 2.8133 68.2202 1.79997C69.9428 0.786634 71.8175 0.279968 73.8442 0.279968H106.068C108.095 0.279968 109.944 0.786634 111.616 1.79997C113.339 2.8133 114.707 4.1813 115.72 5.90397C116.784 7.57597 117.316 9.45063 117.316 11.528V16.62H105.384V12.136H74.3762V21.712H106.068C108.095 21.712 109.944 22.2186 111.616 23.232C113.339 24.2453 114.707 25.6133 115.72 27.336C116.784 29.008 117.316 30.8826 117.316 32.96V43.752C117.316 45.7786 116.784 47.6533 115.72 49.376C114.707 51.0986 113.339 52.4666 111.616 53.48C109.944 54.4933 108.095 55 106.068 55H73.8442Z" fill="#C2C4C7"/>
<path d="M2.70398 72C2.35198 72 2.02665 71.9146 1.72798 71.744C1.43998 71.5626 1.20531 71.328 1.02398 71.04C0.853315 70.7413 0.767981 70.416 0.767981 70.064V69.936H2.07998V70.064C2.07998 70.2346 2.13865 70.384 2.25598 70.512C2.38398 70.6293 2.53331 70.688 2.70398 70.688H8.27198C8.44265 70.688 8.58665 70.6293 8.70398 70.512C8.83198 70.384 8.89598 70.2346 8.89598 70.064V68.64C8.89598 68.4693 8.83198 68.3253 8.70398 68.208C8.58665 68.08 8.44265 68.016 8.27198 68.016H2.70398C2.35198 68.016 2.02665 67.9306 1.72798 67.76C1.43998 67.5786 1.20531 67.344 1.02398 67.056C0.853315 66.7573 0.767981 66.432 0.767981 66.08V64.656C0.767981 64.304 0.853315 63.984 1.02398 63.696C1.20531 63.3973 1.43998 63.1626 1.72798 62.992C2.02665 62.8106 2.35198 62.72 2.70398 62.72H8.27198C8.63465 62.72 8.95998 62.8106 9.24798 62.992C9.54665 63.1626 9.78131 63.3973 9.95198 63.696C10.1333 63.984 10.224 64.304 10.224 64.656V64.784H8.89598V64.656C8.89598 64.4853 8.83198 64.3413 8.70398 64.224C8.58665 64.096 8.44265 64.032 8.27198 64.032H2.70398C2.53331 64.032 2.38398 64.096 2.25598 64.224C2.13865 64.3413 2.07998 64.4853 2.07998 64.656V66.08C2.07998 66.2506 2.13865 66.4 2.25598 66.528C2.38398 66.6453 2.53331 66.704 2.70398 66.704H8.27198C8.63465 66.704 8.95998 66.7946 9.24798 66.976C9.54665 67.1466 9.78131 67.3813 9.95198 67.68C10.1333 67.968 10.224 68.288 10.224 68.64V70.064C10.224 70.416 10.1333 70.7413 9.95198 71.04C9.78131 71.328 9.54665 71.5626 9.24798 71.744C8.95998 71.9146 8.63465 72 8.27198 72H2.70398Z" fill="#C2C4C7"/>
<path d="M29.2567 72C28.9047 72 28.5794 71.9146 28.2807 71.744C27.9927 71.5626 27.7581 71.328 27.5767 71.04C27.4061 70.7413 27.3207 70.416 27.3207 70.064V66.704H35.4487V64.656C35.4487 64.4853 35.3847 64.3413 35.2567 64.224C35.1394 64.096 34.9954 64.032 34.8247 64.032H27.3207V62.72H34.8247C35.1874 62.72 35.5127 62.8106 35.8007 62.992C36.0994 63.1626 36.3341 63.3973 36.5047 63.696C36.6861 63.984 36.7767 64.304 36.7767 64.656V72H29.2567ZM29.2567 70.688H35.4487V68.016H28.6327V70.064C28.6327 70.2346 28.6914 70.384 28.8087 70.512C28.9367 70.6293 29.0861 70.688 29.2567 70.688Z" fill="#C2C4C7"/>
<path d="M55.9021 72C55.5501 72 55.2248 71.9146 54.9261 71.744C54.6381 71.5626 54.4034 71.328 54.2221 71.04C54.0514 70.7413 53.9661 70.416 53.9661 70.064V62.72H55.2781V70.064C55.2781 70.2346 55.3368 70.384 55.4541 70.512C55.5821 70.6293 55.7314 70.688 55.9021 70.688H61.4701C61.6408 70.688 61.7901 70.6293 61.9181 70.512C62.0461 70.384 62.1101 70.2346 62.1101 70.064V62.72H63.4221V70.064C63.4221 70.416 63.3314 70.7413 63.1501 71.04C62.9794 71.328 62.7448 71.5626 62.4461 71.744C62.1581 71.9146 61.8328 72 61.4701 72H55.9021Z" fill="#C2C4C7"/>
<path d="M82.2026 72C81.8506 72 81.5253 71.9146 81.2266 71.744C80.9386 71.5626 80.7039 71.328 80.5226 71.04C80.3519 70.7413 80.2666 70.416 80.2666 70.064V64.656C80.2666 64.304 80.3519 63.984 80.5226 63.696C80.7039 63.3973 80.9386 63.1626 81.2266 62.992C81.5253 62.8106 81.8506 62.72 82.2026 62.72H89.6906V64.032H82.2026C82.0319 64.032 81.8826 64.096 81.7546 64.224C81.6373 64.3413 81.5786 64.4853 81.5786 64.656V70.064C81.5786 70.2346 81.6373 70.384 81.7546 70.512C81.8826 70.6293 82.0319 70.688 82.2026 70.688H89.7226V72H82.2026Z" fill="#C2C4C7"/>
<path d="M108.441 72C108.089 72 107.764 71.9146 107.465 71.744C107.177 71.5626 106.943 71.328 106.761 71.04C106.591 70.7413 106.505 70.416 106.505 70.064V64.656C106.505 64.304 106.591 63.984 106.761 63.696C106.943 63.3973 107.177 63.1626 107.465 62.992C107.764 62.8106 108.089 62.72 108.441 62.72H114.009C114.372 62.72 114.697 62.8106 114.985 62.992C115.284 63.1626 115.519 63.3973 115.689 63.696C115.871 63.984 115.961 64.304 115.961 64.656V68.016H107.817V70.064C107.817 70.2346 107.876 70.384 107.993 70.512C108.121 70.6293 108.271 70.688 108.441 70.688H115.961V72H108.441ZM107.817 66.704H114.633V64.656C114.633 64.4853 114.569 64.3413 114.441 64.224C114.324 64.096 114.18 64.032 114.009 64.032H108.441C108.271 64.032 108.121 64.096 107.993 64.224C107.876 64.3413 107.817 64.4853 107.817 64.656V66.704Z" fill="#C2C4C7"/>
</svg>
