<svg width="16" height="16" viewBox="0 0 16 16" fill="none" xmlns="http://www.w3.org/2000/svg">
<path d="M2.64645 13.6464C2.45118 13.8417 2.45118 14.1583 2.64645 14.3536C2.84171 14.5488 3.15829 14.5488 3.35355 14.3536L2.64645 13.6464ZM14.5 3C14.5 2.72386 14.2761 2.5 14 2.5L9.5 2.5C9.22386 2.5 9 2.72386 9 3C9 3.27614 9.22386 3.5 9.5 3.5H13.5V7.5C13.5 7.77614 13.7239 8 14 8C14.2761 8 14.5 7.77614 14.5 7.5L14.5 3ZM3.35355 14.3536L14.3536 3.35355L13.6464 2.64645L2.64645 13.6464L3.35355 14.3536Z" fill="#C2C4C7"/>
</svg>
